<mxfile host="Electron" modified="2023-07-05T02:55:35.857Z" agent="Mozilla/5.0 (Windows NT 10.0; Win64; x64) AppleWebKit/537.36 (KHTML, like Gecko) draw.io/21.5.1 Chrome/112.0.5615.204 Electron/24.6.0 Safari/537.36" etag="VcYC-JlX5IXsAPb0c3oA" version="21.5.1" type="device" pages="10">
  <diagram name="Page-1" id="e6_LtQ-HvObPQxGEc8Ho">
    <mxGraphModel dx="928" dy="1838" grid="1" gridSize="10" guides="1" tooltips="1" connect="1" arrows="1" fold="1" page="1" pageScale="1" pageWidth="850" pageHeight="1100" math="0" shadow="0">
      <root>
        <mxCell id="0" />
        <mxCell id="1" parent="0" />
        <mxCell id="igNH7fhmAQrWJZc6q1W2-82" value="" style="rounded=0;whiteSpace=wrap;html=1;" parent="1" vertex="1">
          <mxGeometry x="1940" y="-1090" width="620" height="1750" as="geometry" />
        </mxCell>
        <mxCell id="igNH7fhmAQrWJZc6q1W2-77" value="" style="rounded=0;whiteSpace=wrap;html=1;" parent="1" vertex="1">
          <mxGeometry x="1550" y="-1090" width="250" height="570" as="geometry" />
        </mxCell>
        <mxCell id="igNH7fhmAQrWJZc6q1W2-63" value="" style="rounded=0;whiteSpace=wrap;html=1;" parent="1" vertex="1">
          <mxGeometry x="1000" y="-1080" width="320" height="1930" as="geometry" />
        </mxCell>
        <mxCell id="igNH7fhmAQrWJZc6q1W2-27" value="" style="rounded=0;whiteSpace=wrap;html=1;" parent="1" vertex="1">
          <mxGeometry x="120" y="-1080" width="690" height="950" as="geometry" />
        </mxCell>
        <mxCell id="igNH7fhmAQrWJZc6q1W2-1" value="Start" style="ellipse;whiteSpace=wrap;html=1;" parent="1" vertex="1">
          <mxGeometry x="390" y="-1070" width="120" height="80" as="geometry" />
        </mxCell>
        <mxCell id="igNH7fhmAQrWJZc6q1W2-2" value="Kết nối với mạng WiFi trước đó" style="rounded=0;whiteSpace=wrap;html=1;" parent="1" vertex="1">
          <mxGeometry x="390" y="-940" width="120" height="60" as="geometry" />
        </mxCell>
        <mxCell id="igNH7fhmAQrWJZc6q1W2-4" value="Tạo máy chủ web và cung cấp trang web để cấu hình thông tin mạng WiFi" style="rounded=0;whiteSpace=wrap;html=1;" parent="1" vertex="1">
          <mxGeometry x="390" y="-830" width="120" height="60" as="geometry" />
        </mxCell>
        <mxCell id="igNH7fhmAQrWJZc6q1W2-6" value="Nếu địa chỉ IP bị thay đổi" style="rounded=0;whiteSpace=wrap;html=1;" parent="1" vertex="1">
          <mxGeometry x="390" y="-710" width="120" height="60" as="geometry" />
        </mxCell>
        <mxCell id="igNH7fhmAQrWJZc6q1W2-7" value="Lưu địa chỉ mới vào bộ nhớ" style="rounded=0;whiteSpace=wrap;html=1;" parent="1" vertex="1">
          <mxGeometry x="580" y="-710" width="120" height="60" as="geometry" />
        </mxCell>
        <mxCell id="igNH7fhmAQrWJZc6q1W2-8" value="Giám sát trạng thái kết nối WiFi và xử lý các yêu cầu từ trang web" style="rounded=0;whiteSpace=wrap;html=1;" parent="1" vertex="1">
          <mxGeometry x="390" y="-590" width="120" height="60" as="geometry" />
        </mxCell>
        <mxCell id="igNH7fhmAQrWJZc6q1W2-9" value="&lt;div style=&quot;&quot;&gt;&lt;span style=&quot;background-color: initial;&quot;&gt;Nếu nhận được yêu cầu cấu hình thông tin mạng WiFI&lt;/span&gt;&lt;/div&gt;" style="rounded=0;whiteSpace=wrap;html=1;align=center;" parent="1" vertex="1">
          <mxGeometry x="600" y="-440" width="120" height="60" as="geometry" />
        </mxCell>
        <mxCell id="igNH7fhmAQrWJZc6q1W2-10" value="Nếu nhận được yêu cầu cấu hình địa chỉ" style="rounded=0;whiteSpace=wrap;html=1;" parent="1" vertex="1">
          <mxGeometry x="210" y="-440" width="120" height="60" as="geometry" />
        </mxCell>
        <mxCell id="igNH7fhmAQrWJZc6q1W2-11" value="Xử lý thông tin được cung cấp và lưu trữ chúng vào bộ nhớ&amp;nbsp;" style="rounded=0;whiteSpace=wrap;html=1;" parent="1" vertex="1">
          <mxGeometry x="210" y="-340" width="120" height="60" as="geometry" />
        </mxCell>
        <mxCell id="igNH7fhmAQrWJZc6q1W2-12" value="Xử lý thông tin được cung cấp và lưu trữ chúng vào bộ nhớ&amp;nbsp;" style="rounded=0;whiteSpace=wrap;html=1;" parent="1" vertex="1">
          <mxGeometry x="600" y="-340" width="120" height="60" as="geometry" />
        </mxCell>
        <mxCell id="igNH7fhmAQrWJZc6q1W2-13" value="" style="endArrow=classic;html=1;rounded=0;exitX=0.5;exitY=1;exitDx=0;exitDy=0;entryX=0.5;entryY=0;entryDx=0;entryDy=0;" parent="1" source="igNH7fhmAQrWJZc6q1W2-1" target="igNH7fhmAQrWJZc6q1W2-2" edge="1">
          <mxGeometry width="50" height="50" relative="1" as="geometry">
            <mxPoint x="540" y="-650" as="sourcePoint" />
            <mxPoint x="590" y="-700" as="targetPoint" />
          </mxGeometry>
        </mxCell>
        <mxCell id="igNH7fhmAQrWJZc6q1W2-14" value="" style="edgeStyle=none;orthogonalLoop=1;jettySize=auto;html=1;rounded=0;exitX=0.5;exitY=1;exitDx=0;exitDy=0;entryX=0.5;entryY=0;entryDx=0;entryDy=0;" parent="1" source="igNH7fhmAQrWJZc6q1W2-2" target="igNH7fhmAQrWJZc6q1W2-4" edge="1">
          <mxGeometry width="80" relative="1" as="geometry">
            <mxPoint x="430" y="-980" as="sourcePoint" />
            <mxPoint x="510" y="-980" as="targetPoint" />
            <Array as="points" />
          </mxGeometry>
        </mxCell>
        <mxCell id="igNH7fhmAQrWJZc6q1W2-15" value="" style="endArrow=classic;html=1;rounded=0;exitX=0.5;exitY=1;exitDx=0;exitDy=0;" parent="1" source="igNH7fhmAQrWJZc6q1W2-4" target="igNH7fhmAQrWJZc6q1W2-6" edge="1">
          <mxGeometry width="50" height="50" relative="1" as="geometry">
            <mxPoint x="540" y="-650" as="sourcePoint" />
            <mxPoint x="590" y="-700" as="targetPoint" />
          </mxGeometry>
        </mxCell>
        <mxCell id="igNH7fhmAQrWJZc6q1W2-16" value="" style="endArrow=classic;html=1;rounded=0;exitX=0.5;exitY=1;exitDx=0;exitDy=0;entryX=0.5;entryY=0;entryDx=0;entryDy=0;" parent="1" source="igNH7fhmAQrWJZc6q1W2-6" target="igNH7fhmAQrWJZc6q1W2-8" edge="1">
          <mxGeometry width="50" height="50" relative="1" as="geometry">
            <mxPoint x="540" y="-650" as="sourcePoint" />
            <mxPoint x="590" y="-700" as="targetPoint" />
          </mxGeometry>
        </mxCell>
        <mxCell id="igNH7fhmAQrWJZc6q1W2-17" value="" style="endArrow=classic;html=1;rounded=0;exitX=1;exitY=0.5;exitDx=0;exitDy=0;entryX=0;entryY=0.5;entryDx=0;entryDy=0;" parent="1" source="igNH7fhmAQrWJZc6q1W2-6" target="igNH7fhmAQrWJZc6q1W2-7" edge="1">
          <mxGeometry width="50" height="50" relative="1" as="geometry">
            <mxPoint x="540" y="-650" as="sourcePoint" />
            <mxPoint x="590" y="-700" as="targetPoint" />
          </mxGeometry>
        </mxCell>
        <mxCell id="igNH7fhmAQrWJZc6q1W2-18" value="" style="endArrow=classic;html=1;rounded=0;entryX=0.5;entryY=0;entryDx=0;entryDy=0;" parent="1" target="igNH7fhmAQrWJZc6q1W2-9" edge="1">
          <mxGeometry width="50" height="50" relative="1" as="geometry">
            <mxPoint x="450" y="-490" as="sourcePoint" />
            <mxPoint x="450" y="-480" as="targetPoint" />
            <Array as="points">
              <mxPoint x="660" y="-490" />
            </Array>
          </mxGeometry>
        </mxCell>
        <mxCell id="igNH7fhmAQrWJZc6q1W2-19" value="" style="endArrow=none;html=1;rounded=0;exitX=0.5;exitY=1;exitDx=0;exitDy=0;" parent="1" source="igNH7fhmAQrWJZc6q1W2-8" edge="1">
          <mxGeometry width="50" height="50" relative="1" as="geometry">
            <mxPoint x="550" y="-500" as="sourcePoint" />
            <mxPoint x="450" y="-490" as="targetPoint" />
          </mxGeometry>
        </mxCell>
        <mxCell id="igNH7fhmAQrWJZc6q1W2-20" value="" style="endArrow=classic;html=1;rounded=0;entryX=0.5;entryY=0;entryDx=0;entryDy=0;" parent="1" target="igNH7fhmAQrWJZc6q1W2-10" edge="1">
          <mxGeometry width="50" height="50" relative="1" as="geometry">
            <mxPoint x="450" y="-490" as="sourcePoint" />
            <mxPoint x="590" y="-700" as="targetPoint" />
            <Array as="points">
              <mxPoint x="270" y="-490" />
            </Array>
          </mxGeometry>
        </mxCell>
        <mxCell id="igNH7fhmAQrWJZc6q1W2-21" value="" style="endArrow=classic;html=1;rounded=0;exitX=0.5;exitY=1;exitDx=0;exitDy=0;" parent="1" source="igNH7fhmAQrWJZc6q1W2-10" target="igNH7fhmAQrWJZc6q1W2-11" edge="1">
          <mxGeometry width="50" height="50" relative="1" as="geometry">
            <mxPoint x="540" y="-650" as="sourcePoint" />
            <mxPoint x="590" y="-700" as="targetPoint" />
          </mxGeometry>
        </mxCell>
        <mxCell id="igNH7fhmAQrWJZc6q1W2-22" value="" style="endArrow=classic;html=1;rounded=0;exitX=0.5;exitY=1;exitDx=0;exitDy=0;entryX=0.5;entryY=0;entryDx=0;entryDy=0;" parent="1" source="igNH7fhmAQrWJZc6q1W2-9" target="igNH7fhmAQrWJZc6q1W2-12" edge="1">
          <mxGeometry width="50" height="50" relative="1" as="geometry">
            <mxPoint x="540" y="-650" as="sourcePoint" />
            <mxPoint x="590" y="-700" as="targetPoint" />
          </mxGeometry>
        </mxCell>
        <mxCell id="igNH7fhmAQrWJZc6q1W2-25" value="" style="endArrow=none;html=1;rounded=0;exitX=0.5;exitY=1;exitDx=0;exitDy=0;entryX=0.5;entryY=1;entryDx=0;entryDy=0;" parent="1" source="igNH7fhmAQrWJZc6q1W2-11" target="igNH7fhmAQrWJZc6q1W2-12" edge="1">
          <mxGeometry width="50" height="50" relative="1" as="geometry">
            <mxPoint x="540" y="-500" as="sourcePoint" />
            <mxPoint x="590" y="-550" as="targetPoint" />
            <Array as="points">
              <mxPoint x="270" y="-210" />
              <mxPoint x="660" y="-210" />
            </Array>
          </mxGeometry>
        </mxCell>
        <mxCell id="igNH7fhmAQrWJZc6q1W2-26" value="" style="endArrow=classic;html=1;rounded=0;entryX=0;entryY=0.5;entryDx=0;entryDy=0;" parent="1" target="igNH7fhmAQrWJZc6q1W2-8" edge="1">
          <mxGeometry width="50" height="50" relative="1" as="geometry">
            <mxPoint x="450" y="-210" as="sourcePoint" />
            <mxPoint x="140" y="-750" as="targetPoint" />
            <Array as="points">
              <mxPoint x="450" y="-150" />
              <mxPoint x="170" y="-150" />
              <mxPoint x="170" y="-560" />
            </Array>
          </mxGeometry>
        </mxCell>
        <mxCell id="igNH7fhmAQrWJZc6q1W2-28" value="Connect WiFI" style="text;html=1;strokeColor=none;fillColor=none;align=center;verticalAlign=middle;whiteSpace=wrap;rounded=0;" parent="1" vertex="1">
          <mxGeometry x="160" y="-1020" width="60" height="30" as="geometry" />
        </mxCell>
        <mxCell id="igNH7fhmAQrWJZc6q1W2-29" value="Start&amp;nbsp;" style="rounded=0;whiteSpace=wrap;html=1;" parent="1" vertex="1">
          <mxGeometry x="1100" y="-1030" width="120" height="60" as="geometry" />
        </mxCell>
        <mxCell id="igNH7fhmAQrWJZc6q1W2-31" value="Khởi tạo và cấu hình các chân GPIO cho các nút nhấn" style="rounded=0;whiteSpace=wrap;html=1;" parent="1" vertex="1">
          <mxGeometry x="1100" y="-930" width="120" height="60" as="geometry" />
        </mxCell>
        <mxCell id="igNH7fhmAQrWJZc6q1W2-32" value="Khởi tạo Serial và in thông báo" style="rounded=0;whiteSpace=wrap;html=1;" parent="1" vertex="1">
          <mxGeometry x="1100" y="-830" width="120" height="60" as="geometry" />
        </mxCell>
        <mxCell id="igNH7fhmAQrWJZc6q1W2-33" value="Bắt đầu NVS" style="rounded=0;whiteSpace=wrap;html=1;" parent="1" vertex="1">
          <mxGeometry x="1100" y="-730" width="120" height="60" as="geometry" />
        </mxCell>
        <mxCell id="igNH7fhmAQrWJZc6q1W2-34" value="Kiểm tra và khởi tạo PSRAM" style="rounded=0;whiteSpace=wrap;html=1;" parent="1" vertex="1">
          <mxGeometry x="1100" y="-620" width="120" height="60" as="geometry" />
        </mxCell>
        <mxCell id="igNH7fhmAQrWJZc6q1W2-35" value="Khởi tạo Semaphore để đồng bộ truy cập tài nguyên chia sẻ" style="rounded=0;whiteSpace=wrap;html=1;" parent="1" vertex="1">
          <mxGeometry x="1100" y="-510" width="120" height="60" as="geometry" />
        </mxCell>
        <mxCell id="igNH7fhmAQrWJZc6q1W2-36" value="Khởi tạo màn hình TFT" style="rounded=0;whiteSpace=wrap;html=1;" parent="1" vertex="1">
          <mxGeometry x="1100" y="-400" width="120" height="60" as="geometry" />
        </mxCell>
        <mxCell id="igNH7fhmAQrWJZc6q1W2-37" value="Mount FFat&amp;nbsp;" style="rounded=0;whiteSpace=wrap;html=1;" parent="1" vertex="1">
          <mxGeometry x="1100" y="-290" width="120" height="60" as="geometry" />
        </mxCell>
        <mxCell id="igNH7fhmAQrWJZc6q1W2-38" value="Kết nối WiFi" style="rounded=0;whiteSpace=wrap;html=1;" parent="1" vertex="1">
          <mxGeometry x="1100" y="-180" width="120" height="60" as="geometry" />
        </mxCell>
        <mxCell id="igNH7fhmAQrWJZc6q1W2-39" value="Lấy địa chỉ từ NVS hoặc yêu cầu người dùng nhập địa chỉ" style="rounded=0;whiteSpace=wrap;html=1;" parent="1" vertex="1">
          <mxGeometry x="1100" y="-65" width="120" height="60" as="geometry" />
        </mxCell>
        <mxCell id="igNH7fhmAQrWJZc6q1W2-40" value="Lấy múi giờ từ tọa độ" style="rounded=0;whiteSpace=wrap;html=1;" parent="1" vertex="1">
          <mxGeometry x="1100" y="165" width="120" height="60" as="geometry" />
        </mxCell>
        <mxCell id="igNH7fhmAQrWJZc6q1W2-41" value="Lấy tọa độ từ địa chỉ" style="rounded=0;whiteSpace=wrap;html=1;" parent="1" vertex="1">
          <mxGeometry x="1100" y="50" width="120" height="60" as="geometry" />
        </mxCell>
        <mxCell id="igNH7fhmAQrWJZc6q1W2-42" value="Đồng bộ thời gian với internet" style="rounded=0;whiteSpace=wrap;html=1;" parent="1" vertex="1">
          <mxGeometry x="1100" y="280" width="120" height="60" as="geometry" />
        </mxCell>
        <mxCell id="igNH7fhmAQrWJZc6q1W2-43" value="Khởi tạo sprite và load font cho tiêu đề, dữ liệu thời tiết hiện tại và menu" style="rounded=0;whiteSpace=wrap;html=1;" parent="1" vertex="1">
          <mxGeometry x="1100" y="390" width="120" height="60" as="geometry" />
        </mxCell>
        <mxCell id="igNH7fhmAQrWJZc6q1W2-44" value="Tạo và khởi chạy các task điều khiển và hiển thị dữ liệu" style="rounded=0;whiteSpace=wrap;html=1;" parent="1" vertex="1">
          <mxGeometry x="1100" y="500" width="120" height="60" as="geometry" />
        </mxCell>
        <mxCell id="igNH7fhmAQrWJZc6q1W2-45" value="Kích hoạt các tác vụ liên quan đến lấy dữ liệu và hiển thị" style="rounded=0;whiteSpace=wrap;html=1;" parent="1" vertex="1">
          <mxGeometry x="1100" y="610" width="120" height="60" as="geometry" />
        </mxCell>
        <mxCell id="igNH7fhmAQrWJZc6q1W2-46" value="" style="endArrow=classic;html=1;rounded=0;exitX=0.5;exitY=1;exitDx=0;exitDy=0;" parent="1" source="igNH7fhmAQrWJZc6q1W2-29" target="igNH7fhmAQrWJZc6q1W2-31" edge="1">
          <mxGeometry width="50" height="50" relative="1" as="geometry">
            <mxPoint x="1200" y="-660" as="sourcePoint" />
            <mxPoint x="1250" y="-710" as="targetPoint" />
          </mxGeometry>
        </mxCell>
        <mxCell id="igNH7fhmAQrWJZc6q1W2-47" value="" style="endArrow=classic;html=1;rounded=0;exitX=0.5;exitY=1;exitDx=0;exitDy=0;entryX=0.5;entryY=0;entryDx=0;entryDy=0;" parent="1" source="igNH7fhmAQrWJZc6q1W2-31" target="igNH7fhmAQrWJZc6q1W2-32" edge="1">
          <mxGeometry width="50" height="50" relative="1" as="geometry">
            <mxPoint x="1200" y="-790" as="sourcePoint" />
            <mxPoint x="1250" y="-840" as="targetPoint" />
          </mxGeometry>
        </mxCell>
        <mxCell id="igNH7fhmAQrWJZc6q1W2-48" value="" style="endArrow=classic;html=1;rounded=0;exitX=0.5;exitY=1;exitDx=0;exitDy=0;" parent="1" source="igNH7fhmAQrWJZc6q1W2-32" target="igNH7fhmAQrWJZc6q1W2-33" edge="1">
          <mxGeometry width="50" height="50" relative="1" as="geometry">
            <mxPoint x="1200" y="-730" as="sourcePoint" />
            <mxPoint x="1250" y="-780" as="targetPoint" />
          </mxGeometry>
        </mxCell>
        <mxCell id="igNH7fhmAQrWJZc6q1W2-49" value="" style="endArrow=classic;html=1;rounded=0;exitX=0.5;exitY=1;exitDx=0;exitDy=0;" parent="1" source="igNH7fhmAQrWJZc6q1W2-33" target="igNH7fhmAQrWJZc6q1W2-34" edge="1">
          <mxGeometry width="50" height="50" relative="1" as="geometry">
            <mxPoint x="1200" y="-590" as="sourcePoint" />
            <mxPoint x="1250" y="-640" as="targetPoint" />
          </mxGeometry>
        </mxCell>
        <mxCell id="igNH7fhmAQrWJZc6q1W2-50" value="" style="endArrow=classic;html=1;rounded=0;exitX=0.5;exitY=1;exitDx=0;exitDy=0;" parent="1" source="igNH7fhmAQrWJZc6q1W2-34" target="igNH7fhmAQrWJZc6q1W2-35" edge="1">
          <mxGeometry width="50" height="50" relative="1" as="geometry">
            <mxPoint x="1200" y="-390" as="sourcePoint" />
            <mxPoint x="1250" y="-440" as="targetPoint" />
          </mxGeometry>
        </mxCell>
        <mxCell id="igNH7fhmAQrWJZc6q1W2-51" value="" style="endArrow=classic;html=1;rounded=0;exitX=0.5;exitY=1;exitDx=0;exitDy=0;" parent="1" source="igNH7fhmAQrWJZc6q1W2-35" target="igNH7fhmAQrWJZc6q1W2-36" edge="1">
          <mxGeometry width="50" height="50" relative="1" as="geometry">
            <mxPoint x="1200" y="-260" as="sourcePoint" />
            <mxPoint x="1250" y="-310" as="targetPoint" />
          </mxGeometry>
        </mxCell>
        <mxCell id="igNH7fhmAQrWJZc6q1W2-52" value="" style="endArrow=classic;html=1;rounded=0;exitX=0.5;exitY=1;exitDx=0;exitDy=0;" parent="1" source="igNH7fhmAQrWJZc6q1W2-36" target="igNH7fhmAQrWJZc6q1W2-37" edge="1">
          <mxGeometry width="50" height="50" relative="1" as="geometry">
            <mxPoint x="1200" y="-190" as="sourcePoint" />
            <mxPoint x="1250" y="-240" as="targetPoint" />
          </mxGeometry>
        </mxCell>
        <mxCell id="igNH7fhmAQrWJZc6q1W2-53" value="" style="endArrow=classic;html=1;rounded=0;exitX=0.5;exitY=1;exitDx=0;exitDy=0;entryX=0.5;entryY=0;entryDx=0;entryDy=0;" parent="1" source="igNH7fhmAQrWJZc6q1W2-37" target="igNH7fhmAQrWJZc6q1W2-38" edge="1">
          <mxGeometry width="50" height="50" relative="1" as="geometry">
            <mxPoint x="1200" y="-260" as="sourcePoint" />
            <mxPoint x="1250" y="-310" as="targetPoint" />
          </mxGeometry>
        </mxCell>
        <mxCell id="igNH7fhmAQrWJZc6q1W2-54" value="" style="endArrow=classic;html=1;rounded=0;exitX=0.5;exitY=1;exitDx=0;exitDy=0;entryX=0.5;entryY=0;entryDx=0;entryDy=0;" parent="1" source="igNH7fhmAQrWJZc6q1W2-38" target="igNH7fhmAQrWJZc6q1W2-39" edge="1">
          <mxGeometry width="50" height="50" relative="1" as="geometry">
            <mxPoint x="1130" y="-50" as="sourcePoint" />
            <mxPoint x="1180" y="-100" as="targetPoint" />
          </mxGeometry>
        </mxCell>
        <mxCell id="igNH7fhmAQrWJZc6q1W2-55" value="" style="endArrow=classic;html=1;rounded=0;exitX=0.5;exitY=1;exitDx=0;exitDy=0;" parent="1" source="igNH7fhmAQrWJZc6q1W2-39" target="igNH7fhmAQrWJZc6q1W2-41" edge="1">
          <mxGeometry width="50" height="50" relative="1" as="geometry">
            <mxPoint x="1110" y="140" as="sourcePoint" />
            <mxPoint x="1160" y="40" as="targetPoint" />
          </mxGeometry>
        </mxCell>
        <mxCell id="igNH7fhmAQrWJZc6q1W2-56" value="" style="endArrow=classic;html=1;rounded=0;exitX=0.5;exitY=1;exitDx=0;exitDy=0;entryX=0.5;entryY=0;entryDx=0;entryDy=0;" parent="1" source="igNH7fhmAQrWJZc6q1W2-41" target="igNH7fhmAQrWJZc6q1W2-40" edge="1">
          <mxGeometry width="50" height="50" relative="1" as="geometry">
            <mxPoint x="1110" y="140" as="sourcePoint" />
            <mxPoint x="1160" y="90" as="targetPoint" />
          </mxGeometry>
        </mxCell>
        <mxCell id="igNH7fhmAQrWJZc6q1W2-57" value="" style="endArrow=classic;html=1;rounded=0;exitX=0.5;exitY=1;exitDx=0;exitDy=0;entryX=0.5;entryY=0;entryDx=0;entryDy=0;" parent="1" source="igNH7fhmAQrWJZc6q1W2-40" target="igNH7fhmAQrWJZc6q1W2-42" edge="1">
          <mxGeometry width="50" height="50" relative="1" as="geometry">
            <mxPoint x="1110" y="310" as="sourcePoint" />
            <mxPoint x="1160" y="260" as="targetPoint" />
          </mxGeometry>
        </mxCell>
        <mxCell id="igNH7fhmAQrWJZc6q1W2-58" value="" style="endArrow=classic;html=1;rounded=0;exitX=0.5;exitY=1;exitDx=0;exitDy=0;" parent="1" source="igNH7fhmAQrWJZc6q1W2-42" target="igNH7fhmAQrWJZc6q1W2-43" edge="1">
          <mxGeometry width="50" height="50" relative="1" as="geometry">
            <mxPoint x="1120" y="560" as="sourcePoint" />
            <mxPoint x="1170" y="510" as="targetPoint" />
          </mxGeometry>
        </mxCell>
        <mxCell id="igNH7fhmAQrWJZc6q1W2-59" value="" style="endArrow=classic;html=1;rounded=0;exitX=0.5;exitY=1;exitDx=0;exitDy=0;" parent="1" source="igNH7fhmAQrWJZc6q1W2-43" target="igNH7fhmAQrWJZc6q1W2-44" edge="1">
          <mxGeometry width="50" height="50" relative="1" as="geometry">
            <mxPoint x="1120" y="640" as="sourcePoint" />
            <mxPoint x="1170" y="590" as="targetPoint" />
          </mxGeometry>
        </mxCell>
        <mxCell id="igNH7fhmAQrWJZc6q1W2-60" value="" style="endArrow=classic;html=1;rounded=0;exitX=0.5;exitY=1;exitDx=0;exitDy=0;entryX=0.5;entryY=0;entryDx=0;entryDy=0;" parent="1" source="igNH7fhmAQrWJZc6q1W2-44" target="igNH7fhmAQrWJZc6q1W2-45" edge="1">
          <mxGeometry width="50" height="50" relative="1" as="geometry">
            <mxPoint x="1120" y="560" as="sourcePoint" />
            <mxPoint x="1170" y="510" as="targetPoint" />
          </mxGeometry>
        </mxCell>
        <mxCell id="igNH7fhmAQrWJZc6q1W2-61" value="End" style="ellipse;whiteSpace=wrap;html=1;" parent="1" vertex="1">
          <mxGeometry x="1100" y="720" width="120" height="80" as="geometry" />
        </mxCell>
        <mxCell id="igNH7fhmAQrWJZc6q1W2-62" value="" style="endArrow=classic;html=1;rounded=0;exitX=0.5;exitY=1;exitDx=0;exitDy=0;" parent="1" source="igNH7fhmAQrWJZc6q1W2-45" target="igNH7fhmAQrWJZc6q1W2-61" edge="1">
          <mxGeometry width="50" height="50" relative="1" as="geometry">
            <mxPoint x="990" y="560" as="sourcePoint" />
            <mxPoint x="1040" y="510" as="targetPoint" />
          </mxGeometry>
        </mxCell>
        <mxCell id="igNH7fhmAQrWJZc6q1W2-64" value="Setup" style="text;html=1;strokeColor=none;fillColor=none;align=center;verticalAlign=middle;whiteSpace=wrap;rounded=0;" parent="1" vertex="1">
          <mxGeometry x="1020" y="-1060" width="60" height="30" as="geometry" />
        </mxCell>
        <mxCell id="igNH7fhmAQrWJZc6q1W2-68" value="MAIN" style="rounded=0;whiteSpace=wrap;html=1;" parent="1" vertex="1">
          <mxGeometry x="1615" y="-1050" width="120" height="60" as="geometry" />
        </mxCell>
        <mxCell id="igNH7fhmAQrWJZc6q1W2-69" value="MENU" style="rounded=0;whiteSpace=wrap;html=1;" parent="1" vertex="1">
          <mxGeometry x="1615" y="-940" width="120" height="60" as="geometry" />
        </mxCell>
        <mxCell id="igNH7fhmAQrWJZc6q1W2-70" value="THREE_HOURS_FORECAST" style="rounded=0;whiteSpace=wrap;html=1;" parent="1" vertex="1">
          <mxGeometry x="1590" y="-830" width="170" height="60" as="geometry" />
        </mxCell>
        <mxCell id="igNH7fhmAQrWJZc6q1W2-71" value="CHANGE_LOCATION" style="rounded=0;whiteSpace=wrap;html=1;" parent="1" vertex="1">
          <mxGeometry x="1615" y="-720" width="120" height="60" as="geometry" />
        </mxCell>
        <mxCell id="igNH7fhmAQrWJZc6q1W2-72" value="INPUT_API" style="rounded=0;whiteSpace=wrap;html=1;" parent="1" vertex="1">
          <mxGeometry x="1615" y="-610" width="120" height="60" as="geometry" />
        </mxCell>
        <mxCell id="igNH7fhmAQrWJZc6q1W2-78" value="WorkingFlowControl" style="text;html=1;strokeColor=none;fillColor=none;align=center;verticalAlign=middle;whiteSpace=wrap;rounded=0;" parent="1" vertex="1">
          <mxGeometry x="1585" y="-1080" width="60" height="30" as="geometry" />
        </mxCell>
        <mxCell id="igNH7fhmAQrWJZc6q1W2-81" value="Task: WorkingFlowControl&#xa;Mô tả: Điều khiển quá trình làm việc chính của hệ thống.&#xa;Mục đích: Đảm bảo các task hoạt động theo quy trình và thứ tự đã được xác định.&#xa;Tài nguyên sử dụng: 5120 bytes RAM, 10 ưu tiên&#xa;Sử dụng core: Core 0&#xa;&#xa;Task: HandleWiFi&#xa;Mô tả: Xử lý kết nối và cài đặt WiFi.&#xa;Mục đích: Kết nối thiết bị với mạng WiFi.&#xa;Tài nguyên sử dụng: 3072 bytes RAM, 2 ưu tiên&#xa;Sử dụng core: Core 0&#xa;&#xa;Task: GetCurrentWeather&#xa;Mô tả: Lấy dữ liệu thời tiết hiện tại.&#xa;Mục đích: Lấy thông tin về thời tiết hiện tại từ nguồn dữ liệu.&#xa;Tài nguyên sử dụng: 4096 bytes RAM, 1 ưu tiên&#xa;Sử dụng core: Core 0&#xa;&#xa;Task: GetForecastWeather&#xa;Mô tả: Lấy dữ liệu thời tiết dự báo.&#xa;Mục đích: Lấy thông tin về dự báo thời tiết từ nguồn dữ liệu.&#xa;Tài nguyên sử dụng: 8192 bytes RAM, 1 ưu tiên&#xa;Sử dụng core: Core 0&#xa;&#xa;Task: GetAQI&#xa;Mô tả: Lấy dữ liệu chỉ số chất lượng không khí (AQI).&#xa;Mục đích: Lấy thông tin về chỉ số AQI từ nguồn dữ liệu.&#xa;Tài nguyên sử dụng: 3072 bytes RAM, 1 ưu tiên&#xa;Sử dụng core: Core 0&#xa;&#xa;Task: GetUV&#xa;Mô tả: Lấy dữ liệu chỉ số tia tử ngoại (UV).&#xa;Mục đích: Lấy thông tin về chỉ số UV từ nguồn dữ liệu.&#xa;Tài nguyên sử dụng: 3072 bytes RAM, 1 ưu tiên&#xa;Sử dụng core: Core 0&#xa;&#xa;Task: ProcessingCurrentWeather&#xa;Mô tả: Xử lý dữ liệu thời tiết hiện tại.&#xa;Mục đích: Phân tích và xử lý dữ liệu thời tiết hiện tại.&#xa;Tài nguyên sử dụng: 5120 bytes RAM, 1 ưu tiên&#xa;Sử dụng core: Core 0&#xa;&#xa;Task: ProcessingForecastWeather&#xa;Mô tả: Xử lý dữ liệu thời tiết dự báo.&#xa;Mục đích: Phân tích và xử lý dữ liệu thời tiết dự báo.&#xa;Tài nguyên sử dụng: 5120 bytes RAM, 1 ưu tiên&#xa;Sử dụng core: Core 0&#xa;&#xa;Task: DisplayTitle&#xa;Mô tả: Hiển thị tiêu đề trên màn hình.&#xa;Mục đích: Hiển thị thông tin tiêu đề.&#xa;Tài nguyên sử dụng: 2048 bytes RAM, 1 ưu tiên&#xa;Sử dụng core: Core 1&#xa;&#xa;Task: DisplayCurrentWeather&#xa;Mô tả: Hiển thị dữ liệu thời tiết hiện tại trên màn hình.&#xa;Mục đích: Hiển thị thông tin về thời tiết hiện tại.&#xa;Tài nguyên sử dụng: 4096 bytes RAM, 1 ưu tiên&#xa;Sử dụng core: Core 1&#xa;&#xa;Task: DisplayForecastWeather&#xa;Mô tả: Hiển thị dữ liệu thời tiết dự báo trên màn hình.&#xa;Mục đích: Hiển thị thông tin về dự báo thời tiết.&#xa;Tài nguyên sử dụng: 5120 bytes RAM, 1 ưu tiên&#xa;Sử dụng core: Core 1&#xa;&#xa;Task: ButtonMonitoring&#xa;Mô tả: Giám sát trạng thái các nút nhấn.&#xa;Mục đích: Phát hiện và xử lý sự kiện nhấn nút.&#xa;Tài nguyên sử dụng: 2560 bytes RAM, 2 ưu tiên&#xa;Sử dụng core: Core 0&#xa;&#xa;Task: MenuControl&#xa;Mô tả: Điều khiển menu trên màn hình.&#xa;Mục đích: Quản lý và xử lý lựa chọn từ menu.&#xa;Tài nguyên sử dụng: 4096 bytes RAM, 1 ưu tiên&#xa;Sử dụng core: Core 1" style="text;whiteSpace=wrap;" parent="1" vertex="1">
          <mxGeometry x="1970" y="-1035" width="470" height="1330" as="geometry" />
        </mxCell>
        <mxCell id="igNH7fhmAQrWJZc6q1W2-83" value="Giải thích" style="text;html=1;strokeColor=none;fillColor=none;align=center;verticalAlign=middle;whiteSpace=wrap;rounded=0;" parent="1" vertex="1">
          <mxGeometry x="1950" y="-1080" width="60" height="30" as="geometry" />
        </mxCell>
        <mxCell id="igNH7fhmAQrWJZc6q1W2-84" value="MAIN&#xa;Mô tả: để hiển thị thông tin thời tiết hiện tại và dự báo.&#xa;Nhiệm vụ:&#xa;Xóa màn hình.&#xa;Tiếp tục chạy các task liên quan đến lấy dữ liệu thời tiết hiện tại, dự báo, chất lượng không khí (AQI) và chỉ số UV.&#xa;Tiếp tục chạy các task liên quan đến xử lý dữ liệu thời tiết hiện tại và dự báo.&#xa;Tiếp tục chạy các task liên quan đến hiển thị tiêu đề, dữ liệu thời tiết hiện tại và dự báo.&#xa;Đặt cờ để xác định rằng đang ở trong luồng &quot;MAIN&quot;.&#xa;&#xa;MENU&#xa;Mô tả: để hiển thị menu và quản lý lựa chọn từ menu.&#xa;Nhiệm vụ:&#xa;Xóa màn hình.&#xa;Tạm dừng các task liên quan đến hiển thị tiêu đề, dữ liệu thời tiết hiện tại và dự báo.&#xa;Hiển thị menu.&#xa;Đặt cờ để xác định rằng đang ở trong luồng &quot;MENU&quot;.&#xa;&#xa;THREE_HOURS_FORECAST&#xa;Mô tả: để hiển thị dự báo thời tiết trong 3 giờ tiếp theo.&#xa;Nhiệm vụ: Hiển thị dự báo thời tiết trong 3 giờ tiếp theo.&#xa;&#xa;CHANGE_LOCATION&#xa;Mô tả: để thay đổi địa điểm và đồng bộ thời gian.&#xa;Nhiệm vụ:&#xa;Xóa màn hình.&#xa;Hiển thị yêu cầu nhập địa điểm mới.&#xa;Lắng nghe yêu cầu địa điểm mới từ máy khách và lưu trữ vào bộ nhớ NVS.&#xa;Đồng bộ địa điểm mới và cập nhật múi giờ.&#xa;Đặt lại thời gian hệ thống.&#xa;Đặt cờ để xác định rằng đang ở trong luồng &quot;CHANGE_LOCATION&quot;.&#xa;Đặt cờ để yêu cầu lấy lại dữ liệu thời tiết hiện tại và AQI.&#xa;Đặt cờ để chuyển đổi về luồng &quot;MAIN&quot;.&#xa;&#xa;INPUT_API&#xa;Mô tả: để nhận đầu vào từ người dùng.&#xa;Nhiệm vụ: Nhận đầu vào từ người dùng." style="text;whiteSpace=wrap;" parent="1" vertex="1">
          <mxGeometry x="1970" y="90" width="560" height="640" as="geometry" />
        </mxCell>
        <mxCell id="4Ubv0zXsPds93yYSVjD2-2" value="" style="rounded=0;whiteSpace=wrap;html=1;" parent="1" vertex="1">
          <mxGeometry x="2960" y="-1000" width="120" height="60" as="geometry" />
        </mxCell>
        <mxCell id="bBASUXNIMTO3ZUE9FCr9-1" value="" style="endArrow=classic;startArrow=classic;html=1;rounded=0;entryX=0.5;entryY=1;entryDx=0;entryDy=0;" parent="1" source="igNH7fhmAQrWJZc6q1W2-69" target="igNH7fhmAQrWJZc6q1W2-68" edge="1">
          <mxGeometry width="50" height="50" relative="1" as="geometry">
            <mxPoint x="1590" y="-890" as="sourcePoint" />
            <mxPoint x="1530" y="-940" as="targetPoint" />
            <Array as="points" />
          </mxGeometry>
        </mxCell>
        <mxCell id="bBASUXNIMTO3ZUE9FCr9-2" value="" style="endArrow=classic;startArrow=classic;html=1;rounded=0;entryX=0.5;entryY=1;entryDx=0;entryDy=0;" parent="1" edge="1">
          <mxGeometry width="50" height="50" relative="1" as="geometry">
            <mxPoint x="1674.83" y="-830" as="sourcePoint" />
            <mxPoint x="1674.83" y="-880" as="targetPoint" />
            <Array as="points" />
          </mxGeometry>
        </mxCell>
        <mxCell id="bBASUXNIMTO3ZUE9FCr9-3" value="" style="endArrow=classic;startArrow=classic;html=1;rounded=0;entryX=0.5;entryY=1;entryDx=0;entryDy=0;" parent="1" edge="1">
          <mxGeometry width="50" height="50" relative="1" as="geometry">
            <mxPoint x="1674.83" y="-720" as="sourcePoint" />
            <mxPoint x="1674.83" y="-770" as="targetPoint" />
            <Array as="points" />
          </mxGeometry>
        </mxCell>
        <mxCell id="bBASUXNIMTO3ZUE9FCr9-4" value="" style="endArrow=classic;startArrow=classic;html=1;rounded=0;entryX=0.5;entryY=1;entryDx=0;entryDy=0;" parent="1" edge="1">
          <mxGeometry width="50" height="50" relative="1" as="geometry">
            <mxPoint x="1674.83" y="-610" as="sourcePoint" />
            <mxPoint x="1674.83" y="-660" as="targetPoint" />
            <Array as="points" />
          </mxGeometry>
        </mxCell>
      </root>
    </mxGraphModel>
  </diagram>
  <diagram id="9b6QqRgzs0H-s5GXAHa8" name="GetData">
    <mxGraphModel dx="928" dy="738" grid="1" gridSize="10" guides="1" tooltips="1" connect="1" arrows="1" fold="1" page="1" pageScale="1" pageWidth="850" pageHeight="1100" background="none" math="0" shadow="0">
      <root>
        <mxCell id="0" />
        <mxCell id="1" parent="0" />
        <mxCell id="SF5wEN7Lbhu30eppSGCU-3" style="edgeStyle=orthogonalEdgeStyle;rounded=0;orthogonalLoop=1;jettySize=auto;html=1;entryX=0.5;entryY=0;entryDx=0;entryDy=0;" parent="1" source="SF5wEN7Lbhu30eppSGCU-1" target="SF5wEN7Lbhu30eppSGCU-2" edge="1">
          <mxGeometry relative="1" as="geometry" />
        </mxCell>
        <mxCell id="SF5wEN7Lbhu30eppSGCU-1" value="Start" style="ellipse;whiteSpace=wrap;html=1;" parent="1" vertex="1">
          <mxGeometry x="350" y="80" width="120" height="80" as="geometry" />
        </mxCell>
        <mxCell id="SF5wEN7Lbhu30eppSGCU-5" style="edgeStyle=orthogonalEdgeStyle;rounded=0;orthogonalLoop=1;jettySize=auto;html=1;entryX=0.5;entryY=0;entryDx=0;entryDy=0;" parent="1" source="SF5wEN7Lbhu30eppSGCU-2" target="SF5wEN7Lbhu30eppSGCU-4" edge="1">
          <mxGeometry relative="1" as="geometry" />
        </mxCell>
        <mxCell id="SF5wEN7Lbhu30eppSGCU-2" value="Đợi sự kiện bắt đầu lấy dữ liệu" style="rounded=0;whiteSpace=wrap;html=1;aspect=fixed;" parent="1" vertex="1">
          <mxGeometry x="335" y="200" width="150" height="75" as="geometry" />
        </mxCell>
        <mxCell id="SF5wEN7Lbhu30eppSGCU-7" style="edgeStyle=orthogonalEdgeStyle;rounded=0;orthogonalLoop=1;jettySize=auto;html=1;entryX=0.5;entryY=0;entryDx=0;entryDy=0;" parent="1" source="SF5wEN7Lbhu30eppSGCU-4" target="SF5wEN7Lbhu30eppSGCU-6" edge="1">
          <mxGeometry relative="1" as="geometry" />
        </mxCell>
        <mxCell id="SF5wEN7Lbhu30eppSGCU-4" value="Gửi yêu cầu sử dụng WiFi đến Task WiFi Handle" style="rounded=0;whiteSpace=wrap;html=1;aspect=fixed;" parent="1" vertex="1">
          <mxGeometry x="335" y="310" width="150" height="75" as="geometry" />
        </mxCell>
        <mxCell id="SF5wEN7Lbhu30eppSGCU-9" style="edgeStyle=orthogonalEdgeStyle;rounded=0;orthogonalLoop=1;jettySize=auto;html=1;entryX=0.5;entryY=0;entryDx=0;entryDy=0;" parent="1" source="SF5wEN7Lbhu30eppSGCU-6" target="SF5wEN7Lbhu30eppSGCU-8" edge="1">
          <mxGeometry relative="1" as="geometry" />
        </mxCell>
        <mxCell id="SF5wEN7Lbhu30eppSGCU-6" value="Đợi sự kiện WiFi sẵn sàng để dùng được trả về từ Task WiFi Handle" style="rounded=0;whiteSpace=wrap;html=1;aspect=fixed;" parent="1" vertex="1">
          <mxGeometry x="335" y="420" width="150" height="75" as="geometry" />
        </mxCell>
        <mxCell id="SF5wEN7Lbhu30eppSGCU-11" style="edgeStyle=orthogonalEdgeStyle;rounded=0;orthogonalLoop=1;jettySize=auto;html=1;entryX=0.5;entryY=0;entryDx=0;entryDy=0;" parent="1" source="SF5wEN7Lbhu30eppSGCU-8" target="SF5wEN7Lbhu30eppSGCU-10" edge="1">
          <mxGeometry relative="1" as="geometry" />
        </mxCell>
        <mxCell id="SF5wEN7Lbhu30eppSGCU-8" value="Tiến hành lấy Data" style="rounded=0;whiteSpace=wrap;html=1;aspect=fixed;" parent="1" vertex="1">
          <mxGeometry x="335" y="530" width="150" height="75" as="geometry" />
        </mxCell>
        <mxCell id="SF5wEN7Lbhu30eppSGCU-12" style="rounded=0;orthogonalLoop=1;jettySize=auto;html=1;entryX=0;entryY=0.5;entryDx=0;entryDy=0;edgeStyle=orthogonalEdgeStyle;" parent="1" source="SF5wEN7Lbhu30eppSGCU-10" target="SF5wEN7Lbhu30eppSGCU-2" edge="1">
          <mxGeometry relative="1" as="geometry">
            <Array as="points">
              <mxPoint x="280" y="660" />
              <mxPoint x="280" y="230" />
              <mxPoint x="335" y="230" />
            </Array>
          </mxGeometry>
        </mxCell>
        <mxCell id="SF5wEN7Lbhu30eppSGCU-14" style="edgeStyle=orthogonalEdgeStyle;rounded=0;orthogonalLoop=1;jettySize=auto;html=1;entryX=0.5;entryY=0;entryDx=0;entryDy=0;" parent="1" source="SF5wEN7Lbhu30eppSGCU-10" target="SF5wEN7Lbhu30eppSGCU-13" edge="1">
          <mxGeometry relative="1" as="geometry" />
        </mxCell>
        <mxCell id="SF5wEN7Lbhu30eppSGCU-10" value="Trả về sự kiện hoàn thành lấy dữ liệu" style="rounded=0;whiteSpace=wrap;html=1;aspect=fixed;" parent="1" vertex="1">
          <mxGeometry x="335" y="640" width="150" height="75" as="geometry" />
        </mxCell>
        <mxCell id="SF5wEN7Lbhu30eppSGCU-13" value="End" style="ellipse;whiteSpace=wrap;html=1;" parent="1" vertex="1">
          <mxGeometry x="350" y="750" width="120" height="80" as="geometry" />
        </mxCell>
      </root>
    </mxGraphModel>
  </diagram>
  <diagram id="9snatQxYvXywVddeKOmv" name="ProcessingData">
    <mxGraphModel dx="928" dy="738" grid="1" gridSize="10" guides="1" tooltips="1" connect="1" arrows="1" fold="1" page="1" pageScale="1" pageWidth="850" pageHeight="1100" math="1" shadow="0">
      <root>
        <mxCell id="0" />
        <mxCell id="1" parent="0" />
        <mxCell id="-38gbieBIyDpYjQ8WZnU-6" style="edgeStyle=orthogonalEdgeStyle;rounded=0;orthogonalLoop=1;jettySize=auto;html=1;entryX=0.5;entryY=0;entryDx=0;entryDy=0;" parent="1" source="yPNZAVlG0BM0FhtFGw3a-1" target="vmt8zyWKn1H_6nbx35Hi-1" edge="1">
          <mxGeometry relative="1" as="geometry" />
        </mxCell>
        <mxCell id="yPNZAVlG0BM0FhtFGw3a-1" value="Start" style="ellipse;whiteSpace=wrap;html=1;" parent="1" vertex="1">
          <mxGeometry x="350" y="70" width="120" height="80" as="geometry" />
        </mxCell>
        <mxCell id="-38gbieBIyDpYjQ8WZnU-5" style="edgeStyle=orthogonalEdgeStyle;rounded=0;orthogonalLoop=1;jettySize=auto;html=1;entryX=0.5;entryY=0;entryDx=0;entryDy=0;" parent="1" source="vmt8zyWKn1H_6nbx35Hi-1" target="vmt8zyWKn1H_6nbx35Hi-2" edge="1">
          <mxGeometry relative="1" as="geometry" />
        </mxCell>
        <mxCell id="vmt8zyWKn1H_6nbx35Hi-1" value="Đợi sự kiện hoàn thành lấy dữ liệu" style="rounded=0;whiteSpace=wrap;html=1;aspect=fixed;" parent="1" vertex="1">
          <mxGeometry x="335" y="190" width="150" height="75" as="geometry" />
        </mxCell>
        <mxCell id="-38gbieBIyDpYjQ8WZnU-1" style="edgeStyle=orthogonalEdgeStyle;rounded=0;orthogonalLoop=1;jettySize=auto;html=1;entryX=0.5;entryY=0;entryDx=0;entryDy=0;" parent="1" source="vmt8zyWKn1H_6nbx35Hi-2" target="vmt8zyWKn1H_6nbx35Hi-3" edge="1">
          <mxGeometry relative="1" as="geometry" />
        </mxCell>
        <mxCell id="vmt8zyWKn1H_6nbx35Hi-2" value="Tiến hành trích xuất dữ liệu đã lấy chuyển vào Queue" style="rounded=0;whiteSpace=wrap;html=1;aspect=fixed;" parent="1" vertex="1">
          <mxGeometry x="335" y="310" width="150" height="75" as="geometry" />
        </mxCell>
        <mxCell id="-38gbieBIyDpYjQ8WZnU-3" style="edgeStyle=orthogonalEdgeStyle;rounded=0;orthogonalLoop=1;jettySize=auto;html=1;entryX=0.5;entryY=0;entryDx=0;entryDy=0;" parent="1" source="vmt8zyWKn1H_6nbx35Hi-3" target="-38gbieBIyDpYjQ8WZnU-2" edge="1">
          <mxGeometry relative="1" as="geometry" />
        </mxCell>
        <mxCell id="_AtNPBS_KqD7RoWSM_mx-1" style="edgeStyle=orthogonalEdgeStyle;rounded=0;orthogonalLoop=1;jettySize=auto;html=1;entryX=0;entryY=0.5;entryDx=0;entryDy=0;" parent="1" source="vmt8zyWKn1H_6nbx35Hi-3" target="vmt8zyWKn1H_6nbx35Hi-1" edge="1">
          <mxGeometry relative="1" as="geometry">
            <Array as="points">
              <mxPoint x="280" y="468" />
              <mxPoint x="280" y="228" />
            </Array>
          </mxGeometry>
        </mxCell>
        <mxCell id="vmt8zyWKn1H_6nbx35Hi-3" value="Trả về sự kiện hoàn thành xử lí dữ liệu" style="rounded=0;whiteSpace=wrap;html=1;aspect=fixed;" parent="1" vertex="1">
          <mxGeometry x="335" y="430" width="150" height="75" as="geometry" />
        </mxCell>
        <mxCell id="-38gbieBIyDpYjQ8WZnU-2" value="End" style="ellipse;whiteSpace=wrap;html=1;" parent="1" vertex="1">
          <mxGeometry x="350" y="550" width="120" height="80" as="geometry" />
        </mxCell>
      </root>
    </mxGraphModel>
  </diagram>
  <diagram id="mJNOM_C6XK4d_hvY-kCX" name="Display">
    <mxGraphModel dx="928" dy="738" grid="1" gridSize="10" guides="1" tooltips="1" connect="1" arrows="1" fold="1" page="1" pageScale="1" pageWidth="850" pageHeight="1100" math="0" shadow="0">
      <root>
        <mxCell id="0" />
        <mxCell id="1" parent="0" />
        <mxCell id="5d3TAzBqcY0p-v2F3JFb-3" style="edgeStyle=orthogonalEdgeStyle;rounded=0;orthogonalLoop=1;jettySize=auto;html=1;entryX=0.5;entryY=0;entryDx=0;entryDy=0;" edge="1" parent="1" source="hHhpxLuv1g9SqoN1ABRt-1" target="hHhpxLuv1g9SqoN1ABRt-3">
          <mxGeometry relative="1" as="geometry" />
        </mxCell>
        <mxCell id="hHhpxLuv1g9SqoN1ABRt-1" value="Start" style="ellipse;whiteSpace=wrap;html=1;" vertex="1" parent="1">
          <mxGeometry x="350" y="400" width="120" height="80" as="geometry" />
        </mxCell>
        <mxCell id="5d3TAzBqcY0p-v2F3JFb-4" style="edgeStyle=orthogonalEdgeStyle;rounded=0;orthogonalLoop=1;jettySize=auto;html=1;entryX=0.5;entryY=0;entryDx=0;entryDy=0;" edge="1" parent="1" source="hHhpxLuv1g9SqoN1ABRt-3" target="hHhpxLuv1g9SqoN1ABRt-4">
          <mxGeometry relative="1" as="geometry" />
        </mxCell>
        <mxCell id="hHhpxLuv1g9SqoN1ABRt-3" value="Đợi sự kiện hoàn thành xử lý dữ liệu" style="rounded=0;whiteSpace=wrap;html=1;aspect=fixed;" vertex="1" parent="1">
          <mxGeometry x="335" y="520" width="150" height="75" as="geometry" />
        </mxCell>
        <mxCell id="5d3TAzBqcY0p-v2F3JFb-5" style="edgeStyle=orthogonalEdgeStyle;rounded=0;orthogonalLoop=1;jettySize=auto;html=1;entryX=0.5;entryY=0;entryDx=0;entryDy=0;" edge="1" parent="1" source="hHhpxLuv1g9SqoN1ABRt-4" target="5d3TAzBqcY0p-v2F3JFb-1">
          <mxGeometry relative="1" as="geometry" />
        </mxCell>
        <mxCell id="hHhpxLuv1g9SqoN1ABRt-4" value="Tiến hành đọc dữ liệu đã được trích xuất được đưa vào trong Queue" style="rounded=0;whiteSpace=wrap;html=1;aspect=fixed;" vertex="1" parent="1">
          <mxGeometry x="335" y="640" width="150" height="75" as="geometry" />
        </mxCell>
        <mxCell id="5d3TAzBqcY0p-v2F3JFb-6" style="edgeStyle=orthogonalEdgeStyle;rounded=0;orthogonalLoop=1;jettySize=auto;html=1;entryX=0.5;entryY=0;entryDx=0;entryDy=0;" edge="1" parent="1" source="5d3TAzBqcY0p-v2F3JFb-1" target="5d3TAzBqcY0p-v2F3JFb-2">
          <mxGeometry relative="1" as="geometry" />
        </mxCell>
        <mxCell id="5d3TAzBqcY0p-v2F3JFb-7" style="edgeStyle=orthogonalEdgeStyle;rounded=0;orthogonalLoop=1;jettySize=auto;html=1;entryX=0;entryY=0.5;entryDx=0;entryDy=0;" edge="1" parent="1" source="5d3TAzBqcY0p-v2F3JFb-1" target="hHhpxLuv1g9SqoN1ABRt-3">
          <mxGeometry relative="1" as="geometry">
            <Array as="points">
              <mxPoint x="240" y="797.5" />
              <mxPoint x="240" y="558" />
            </Array>
          </mxGeometry>
        </mxCell>
        <mxCell id="5d3TAzBqcY0p-v2F3JFb-1" value="Hiển thị dữ liệu ra màn hình theo thiết kế đã định" style="rounded=0;whiteSpace=wrap;html=1;aspect=fixed;" vertex="1" parent="1">
          <mxGeometry x="335" y="760" width="150" height="75" as="geometry" />
        </mxCell>
        <mxCell id="5d3TAzBqcY0p-v2F3JFb-2" value="End" style="ellipse;whiteSpace=wrap;html=1;" vertex="1" parent="1">
          <mxGeometry x="350" y="880" width="120" height="80" as="geometry" />
        </mxCell>
      </root>
    </mxGraphModel>
  </diagram>
  <diagram id="gVyms3s8uvEnDrfQAJ0N" name="ButtonMonitoring">
    <mxGraphModel dx="928" dy="738" grid="1" gridSize="10" guides="1" tooltips="1" connect="1" arrows="1" fold="1" page="1" pageScale="1" pageWidth="850" pageHeight="1100" math="0" shadow="0">
      <root>
        <mxCell id="0" />
        <mxCell id="1" parent="0" />
        <mxCell id="kTvzXUynsKUYPNZva7tb-16" style="edgeStyle=orthogonalEdgeStyle;rounded=0;orthogonalLoop=1;jettySize=auto;html=1;entryX=0.5;entryY=0;entryDx=0;entryDy=0;" parent="1" source="kTvzXUynsKUYPNZva7tb-1" target="kTvzXUynsKUYPNZva7tb-2" edge="1">
          <mxGeometry relative="1" as="geometry" />
        </mxCell>
        <mxCell id="kTvzXUynsKUYPNZva7tb-1" value="Start" style="ellipse;whiteSpace=wrap;html=1;" parent="1" vertex="1">
          <mxGeometry x="305" y="80" width="120" height="80" as="geometry" />
        </mxCell>
        <mxCell id="kTvzXUynsKUYPNZva7tb-7" style="edgeStyle=orthogonalEdgeStyle;rounded=0;orthogonalLoop=1;jettySize=auto;html=1;entryX=0.5;entryY=0;entryDx=0;entryDy=0;" parent="1" source="kTvzXUynsKUYPNZva7tb-2" target="kTvzXUynsKUYPNZva7tb-5" edge="1">
          <mxGeometry relative="1" as="geometry" />
        </mxCell>
        <mxCell id="kTvzXUynsKUYPNZva7tb-2" value="Đọc trạng thái của nút nhấn" style="rounded=0;whiteSpace=wrap;html=1;aspect=fixed;" parent="1" vertex="1">
          <mxGeometry x="290" y="200" width="150" height="75" as="geometry" />
        </mxCell>
        <mxCell id="kTvzXUynsKUYPNZva7tb-8" style="edgeStyle=orthogonalEdgeStyle;rounded=0;orthogonalLoop=1;jettySize=auto;html=1;entryX=0.5;entryY=0;entryDx=0;entryDy=0;" parent="1" source="kTvzXUynsKUYPNZva7tb-5" target="kTvzXUynsKUYPNZva7tb-6" edge="1">
          <mxGeometry relative="1" as="geometry" />
        </mxCell>
        <mxCell id="kTvzXUynsKUYPNZva7tb-13" style="edgeStyle=orthogonalEdgeStyle;rounded=0;orthogonalLoop=1;jettySize=auto;html=1;entryX=0;entryY=0.5;entryDx=0;entryDy=0;" parent="1" source="kTvzXUynsKUYPNZva7tb-5" target="kTvzXUynsKUYPNZva7tb-12" edge="1">
          <mxGeometry relative="1" as="geometry" />
        </mxCell>
        <mxCell id="kTvzXUynsKUYPNZva7tb-5" value="Nhấn giữ" style="rhombus;whiteSpace=wrap;html=1;aspect=fixed;" parent="1" vertex="1">
          <mxGeometry x="290" y="320" width="150" height="80" as="geometry" />
        </mxCell>
        <mxCell id="kTvzXUynsKUYPNZva7tb-15" style="edgeStyle=orthogonalEdgeStyle;rounded=0;orthogonalLoop=1;jettySize=auto;html=1;entryX=0.5;entryY=0;entryDx=0;entryDy=0;" parent="1" source="kTvzXUynsKUYPNZva7tb-6" target="kTvzXUynsKUYPNZva7tb-14" edge="1">
          <mxGeometry relative="1" as="geometry" />
        </mxCell>
        <mxCell id="kTvzXUynsKUYPNZva7tb-31" style="edgeStyle=orthogonalEdgeStyle;rounded=0;orthogonalLoop=1;jettySize=auto;html=1;entryX=0;entryY=0.5;entryDx=0;entryDy=0;" parent="1" source="kTvzXUynsKUYPNZva7tb-6" target="kTvzXUynsKUYPNZva7tb-28" edge="1">
          <mxGeometry relative="1" as="geometry" />
        </mxCell>
        <mxCell id="kTvzXUynsKUYPNZva7tb-6" value="Nút Up được nhấn" style="rhombus;whiteSpace=wrap;html=1;aspect=fixed;" parent="1" vertex="1">
          <mxGeometry x="290" y="440" width="150" height="80" as="geometry" />
        </mxCell>
        <mxCell id="kTvzXUynsKUYPNZva7tb-26" style="edgeStyle=orthogonalEdgeStyle;rounded=0;orthogonalLoop=1;jettySize=auto;html=1;entryX=0;entryY=0.5;entryDx=0;entryDy=0;" parent="1" source="kTvzXUynsKUYPNZva7tb-12" target="kTvzXUynsKUYPNZva7tb-25" edge="1">
          <mxGeometry relative="1" as="geometry" />
        </mxCell>
        <mxCell id="kTvzXUynsKUYPNZva7tb-12" value="Kiểm tra luồng hoạt động hiện tại có phải đang ở trong Menu" style="rhombus;whiteSpace=wrap;html=1;aspect=fixed;" parent="1" vertex="1">
          <mxGeometry x="520" y="320" width="150" height="80" as="geometry" />
        </mxCell>
        <mxCell id="kTvzXUynsKUYPNZva7tb-19" style="edgeStyle=orthogonalEdgeStyle;rounded=0;orthogonalLoop=1;jettySize=auto;html=1;entryX=0.5;entryY=0;entryDx=0;entryDy=0;" parent="1" source="kTvzXUynsKUYPNZva7tb-14" target="kTvzXUynsKUYPNZva7tb-18" edge="1">
          <mxGeometry relative="1" as="geometry" />
        </mxCell>
        <mxCell id="kTvzXUynsKUYPNZva7tb-30" style="edgeStyle=orthogonalEdgeStyle;rounded=0;orthogonalLoop=1;jettySize=auto;html=1;entryX=0;entryY=0.5;entryDx=0;entryDy=0;" parent="1" source="kTvzXUynsKUYPNZva7tb-14" target="kTvzXUynsKUYPNZva7tb-29" edge="1">
          <mxGeometry relative="1" as="geometry" />
        </mxCell>
        <mxCell id="kTvzXUynsKUYPNZva7tb-14" value="Nút Down được nhấn" style="rhombus;whiteSpace=wrap;html=1;aspect=fixed;" parent="1" vertex="1">
          <mxGeometry x="290" y="560" width="150" height="80" as="geometry" />
        </mxCell>
        <mxCell id="kTvzXUynsKUYPNZva7tb-20" style="edgeStyle=orthogonalEdgeStyle;rounded=0;orthogonalLoop=1;jettySize=auto;html=1;entryX=0;entryY=0.5;entryDx=0;entryDy=0;exitX=0;exitY=0.5;exitDx=0;exitDy=0;" parent="1" source="kTvzXUynsKUYPNZva7tb-18" target="kTvzXUynsKUYPNZva7tb-2" edge="1">
          <mxGeometry relative="1" as="geometry">
            <Array as="points">
              <mxPoint x="290" y="720" />
              <mxPoint x="240" y="720" />
              <mxPoint x="240" y="237" />
            </Array>
          </mxGeometry>
        </mxCell>
        <mxCell id="kTvzXUynsKUYPNZva7tb-42" style="edgeStyle=orthogonalEdgeStyle;rounded=0;orthogonalLoop=1;jettySize=auto;html=1;entryX=0.5;entryY=0;entryDx=0;entryDy=0;" parent="1" source="kTvzXUynsKUYPNZva7tb-18" target="kTvzXUynsKUYPNZva7tb-41" edge="1">
          <mxGeometry relative="1" as="geometry" />
        </mxCell>
        <mxCell id="kTvzXUynsKUYPNZva7tb-18" value="Kết thúc switch case" style="rounded=0;whiteSpace=wrap;html=1;aspect=fixed;" parent="1" vertex="1">
          <mxGeometry x="290" y="680" width="150" height="75" as="geometry" />
        </mxCell>
        <mxCell id="kTvzXUynsKUYPNZva7tb-38" style="edgeStyle=orthogonalEdgeStyle;rounded=0;orthogonalLoop=1;jettySize=auto;html=1;entryX=1;entryY=0.5;entryDx=0;entryDy=0;" parent="1" source="kTvzXUynsKUYPNZva7tb-25" target="kTvzXUynsKUYPNZva7tb-18" edge="1">
          <mxGeometry relative="1" as="geometry">
            <Array as="points">
              <mxPoint x="960" y="360" />
              <mxPoint x="960" y="718" />
            </Array>
          </mxGeometry>
        </mxCell>
        <mxCell id="kTvzXUynsKUYPNZva7tb-25" value="Kích hoạt luồng hoạt động Menu" style="rounded=0;whiteSpace=wrap;html=1;aspect=fixed;" parent="1" vertex="1">
          <mxGeometry x="720" y="322.5" width="150" height="75" as="geometry" />
        </mxCell>
        <mxCell id="kTvzXUynsKUYPNZva7tb-27" value="Sai" style="text;html=1;align=center;verticalAlign=middle;resizable=0;points=[];autosize=1;strokeColor=none;fillColor=none;" parent="1" vertex="1">
          <mxGeometry x="670" y="328" width="40" height="30" as="geometry" />
        </mxCell>
        <mxCell id="kTvzXUynsKUYPNZva7tb-34" style="edgeStyle=orthogonalEdgeStyle;rounded=0;orthogonalLoop=1;jettySize=auto;html=1;entryX=0;entryY=0.5;entryDx=0;entryDy=0;" parent="1" source="kTvzXUynsKUYPNZva7tb-28" target="kTvzXUynsKUYPNZva7tb-32" edge="1">
          <mxGeometry relative="1" as="geometry" />
        </mxCell>
        <mxCell id="kTvzXUynsKUYPNZva7tb-28" value="Kiểm tra luồng hoạt động hiện tại có phải đang ở trong Menu" style="rhombus;whiteSpace=wrap;html=1;aspect=fixed;" parent="1" vertex="1">
          <mxGeometry x="520" y="440" width="150" height="80" as="geometry" />
        </mxCell>
        <mxCell id="kTvzXUynsKUYPNZva7tb-35" style="edgeStyle=orthogonalEdgeStyle;rounded=0;orthogonalLoop=1;jettySize=auto;html=1;entryX=0;entryY=0.5;entryDx=0;entryDy=0;" parent="1" source="kTvzXUynsKUYPNZva7tb-29" target="kTvzXUynsKUYPNZva7tb-33" edge="1">
          <mxGeometry relative="1" as="geometry" />
        </mxCell>
        <mxCell id="kTvzXUynsKUYPNZva7tb-29" value="Kiểm tra luồng hoạt động hiện tại có phải đang ở trong Menu" style="rhombus;whiteSpace=wrap;html=1;aspect=fixed;" parent="1" vertex="1">
          <mxGeometry x="520" y="560" width="150" height="80" as="geometry" />
        </mxCell>
        <mxCell id="kTvzXUynsKUYPNZva7tb-39" style="edgeStyle=orthogonalEdgeStyle;rounded=0;orthogonalLoop=1;jettySize=auto;html=1;endArrow=none;endFill=0;" parent="1" source="kTvzXUynsKUYPNZva7tb-32" edge="1">
          <mxGeometry relative="1" as="geometry">
            <mxPoint x="960" y="480" as="targetPoint" />
          </mxGeometry>
        </mxCell>
        <mxCell id="kTvzXUynsKUYPNZva7tb-32" value="Giảm giá trị con trỏ Menu đi 1" style="rounded=0;whiteSpace=wrap;html=1;aspect=fixed;" parent="1" vertex="1">
          <mxGeometry x="720" y="442.5" width="150" height="75" as="geometry" />
        </mxCell>
        <mxCell id="kTvzXUynsKUYPNZva7tb-40" style="edgeStyle=orthogonalEdgeStyle;rounded=0;orthogonalLoop=1;jettySize=auto;html=1;endArrow=none;endFill=0;" parent="1" source="kTvzXUynsKUYPNZva7tb-33" edge="1">
          <mxGeometry relative="1" as="geometry">
            <mxPoint x="960" y="600" as="targetPoint" />
          </mxGeometry>
        </mxCell>
        <mxCell id="kTvzXUynsKUYPNZva7tb-33" value="Tăng giá trị con trỏ Menu đi 1" style="rounded=0;whiteSpace=wrap;html=1;aspect=fixed;" parent="1" vertex="1">
          <mxGeometry x="720" y="562.5" width="150" height="75" as="geometry" />
        </mxCell>
        <mxCell id="kTvzXUynsKUYPNZva7tb-36" value="Đúng" style="text;html=1;align=center;verticalAlign=middle;resizable=0;points=[];autosize=1;strokeColor=none;fillColor=none;" parent="1" vertex="1">
          <mxGeometry x="665" y="448" width="50" height="30" as="geometry" />
        </mxCell>
        <mxCell id="kTvzXUynsKUYPNZva7tb-37" value="Đúng" style="text;html=1;align=center;verticalAlign=middle;resizable=0;points=[];autosize=1;strokeColor=none;fillColor=none;" parent="1" vertex="1">
          <mxGeometry x="665" y="570" width="50" height="30" as="geometry" />
        </mxCell>
        <mxCell id="kTvzXUynsKUYPNZva7tb-41" value="End" style="ellipse;whiteSpace=wrap;html=1;" parent="1" vertex="1">
          <mxGeometry x="305" y="790" width="120" height="80" as="geometry" />
        </mxCell>
      </root>
    </mxGraphModel>
  </diagram>
  <diagram id="0z9LOiShKqqqnn14GA2N" name="Menu">
    <mxGraphModel dx="807" dy="1742" grid="1" gridSize="10" guides="1" tooltips="1" connect="1" arrows="1" fold="1" page="1" pageScale="1" pageWidth="850" pageHeight="1100" math="0" shadow="0">
      <root>
        <mxCell id="0" />
        <mxCell id="1" parent="0" />
        <mxCell id="GIX23owhjXsJFl0O1FIT-34" style="edgeStyle=orthogonalEdgeStyle;rounded=0;orthogonalLoop=1;jettySize=auto;html=1;entryX=0.5;entryY=0;entryDx=0;entryDy=0;" edge="1" parent="1" source="eFG2Fhv3p7UlwRJ7y4Xw-1" target="GIX23owhjXsJFl0O1FIT-31">
          <mxGeometry relative="1" as="geometry" />
        </mxCell>
        <mxCell id="eFG2Fhv3p7UlwRJ7y4Xw-1" value="Start" style="ellipse;whiteSpace=wrap;html=1;" vertex="1" parent="1">
          <mxGeometry x="200" y="-40" width="120" height="80" as="geometry" />
        </mxCell>
        <mxCell id="GIX23owhjXsJFl0O1FIT-9" style="edgeStyle=orthogonalEdgeStyle;rounded=0;orthogonalLoop=1;jettySize=auto;html=1;entryX=0.5;entryY=0;entryDx=0;entryDy=0;" edge="1" parent="1" source="eFG2Fhv3p7UlwRJ7y4Xw-2" target="PcaqdsHK68XIZmTitzt2-1">
          <mxGeometry relative="1" as="geometry" />
        </mxCell>
        <mxCell id="eFG2Fhv3p7UlwRJ7y4Xw-2" value="Đọc trạng thái của nút nhấn" style="rounded=0;whiteSpace=wrap;html=1;aspect=fixed;" vertex="1" parent="1">
          <mxGeometry x="185" y="200" width="150" height="75" as="geometry" />
        </mxCell>
        <mxCell id="GIX23owhjXsJFl0O1FIT-2" style="edgeStyle=orthogonalEdgeStyle;rounded=0;orthogonalLoop=1;jettySize=auto;html=1;entryX=1;entryY=0.5;entryDx=0;entryDy=0;" edge="1" parent="1" source="PcaqdsHK68XIZmTitzt2-1" target="eFG2Fhv3p7UlwRJ7y4Xw-2">
          <mxGeometry relative="1" as="geometry">
            <Array as="points">
              <mxPoint x="400" y="361.3800000000001" />
              <mxPoint x="400" y="238" />
            </Array>
          </mxGeometry>
        </mxCell>
        <mxCell id="GIX23owhjXsJFl0O1FIT-7" style="edgeStyle=orthogonalEdgeStyle;rounded=0;orthogonalLoop=1;jettySize=auto;html=1;entryX=0.499;entryY=-0.039;entryDx=0;entryDy=0;entryPerimeter=0;" edge="1" parent="1" source="PcaqdsHK68XIZmTitzt2-1" target="GIX23owhjXsJFl0O1FIT-6">
          <mxGeometry relative="1" as="geometry" />
        </mxCell>
        <mxCell id="PcaqdsHK68XIZmTitzt2-1" value="Nếu được nhấn" style="rhombus;whiteSpace=wrap;html=1;aspect=fixed;" vertex="1" parent="1">
          <mxGeometry x="185" y="320" width="150" height="82.76" as="geometry" />
        </mxCell>
        <mxCell id="GIX23owhjXsJFl0O1FIT-3" value="Sai" style="text;html=1;align=center;verticalAlign=middle;resizable=0;points=[];autosize=1;strokeColor=none;fillColor=none;" vertex="1" parent="1">
          <mxGeometry x="350" y="330" width="40" height="30" as="geometry" />
        </mxCell>
        <mxCell id="GIX23owhjXsJFl0O1FIT-11" style="edgeStyle=orthogonalEdgeStyle;rounded=0;orthogonalLoop=1;jettySize=auto;html=1;entryX=0.5;entryY=0;entryDx=0;entryDy=0;" edge="1" parent="1" source="GIX23owhjXsJFl0O1FIT-6" target="GIX23owhjXsJFl0O1FIT-10">
          <mxGeometry relative="1" as="geometry" />
        </mxCell>
        <mxCell id="GIX23owhjXsJFl0O1FIT-6" value="Kiểm tra giá trị của con trỏ Menu" style="rounded=0;whiteSpace=wrap;html=1;aspect=fixed;" vertex="1" parent="1">
          <mxGeometry x="185" y="440" width="150" height="75" as="geometry" />
        </mxCell>
        <mxCell id="GIX23owhjXsJFl0O1FIT-8" value="Đúng" style="text;html=1;align=center;verticalAlign=middle;resizable=0;points=[];autosize=1;strokeColor=none;fillColor=none;" vertex="1" parent="1">
          <mxGeometry x="255" y="408" width="50" height="30" as="geometry" />
        </mxCell>
        <mxCell id="GIX23owhjXsJFl0O1FIT-15" value="" style="edgeStyle=orthogonalEdgeStyle;rounded=0;orthogonalLoop=1;jettySize=auto;html=1;" edge="1" parent="1" source="GIX23owhjXsJFl0O1FIT-10" target="GIX23owhjXsJFl0O1FIT-14">
          <mxGeometry relative="1" as="geometry" />
        </mxCell>
        <mxCell id="GIX23owhjXsJFl0O1FIT-17" value="" style="edgeStyle=orthogonalEdgeStyle;rounded=0;orthogonalLoop=1;jettySize=auto;html=1;" edge="1" parent="1" source="GIX23owhjXsJFl0O1FIT-10" target="GIX23owhjXsJFl0O1FIT-16">
          <mxGeometry relative="1" as="geometry" />
        </mxCell>
        <mxCell id="GIX23owhjXsJFl0O1FIT-10" value="== 0" style="rhombus;whiteSpace=wrap;html=1;aspect=fixed;" vertex="1" parent="1">
          <mxGeometry x="185" y="550" width="150" height="82.76" as="geometry" />
        </mxCell>
        <mxCell id="GIX23owhjXsJFl0O1FIT-27" style="edgeStyle=orthogonalEdgeStyle;rounded=0;orthogonalLoop=1;jettySize=auto;html=1;entryX=1;entryY=0.5;entryDx=0;entryDy=0;" edge="1" parent="1" source="GIX23owhjXsJFl0O1FIT-14" target="GIX23owhjXsJFl0O1FIT-25">
          <mxGeometry relative="1" as="geometry">
            <Array as="points">
              <mxPoint x="600" y="591" />
              <mxPoint x="600" y="990" />
            </Array>
          </mxGeometry>
        </mxCell>
        <mxCell id="GIX23owhjXsJFl0O1FIT-14" value="Trả về sự kiện chạy chức năng mặc định" style="rounded=0;whiteSpace=wrap;html=1;aspect=fixed;" vertex="1" parent="1">
          <mxGeometry x="400" y="553.88" width="150" height="75" as="geometry" />
        </mxCell>
        <mxCell id="GIX23owhjXsJFl0O1FIT-19" value="" style="edgeStyle=orthogonalEdgeStyle;rounded=0;orthogonalLoop=1;jettySize=auto;html=1;" edge="1" parent="1" source="GIX23owhjXsJFl0O1FIT-16" target="GIX23owhjXsJFl0O1FIT-18">
          <mxGeometry relative="1" as="geometry" />
        </mxCell>
        <mxCell id="GIX23owhjXsJFl0O1FIT-16" value="== 1" style="rhombus;whiteSpace=wrap;html=1;aspect=fixed;" vertex="1" parent="1">
          <mxGeometry x="185" y="670" width="150" height="82.76" as="geometry" />
        </mxCell>
        <mxCell id="GIX23owhjXsJFl0O1FIT-28" style="edgeStyle=orthogonalEdgeStyle;rounded=0;orthogonalLoop=1;jettySize=auto;html=1;endArrow=none;endFill=0;" edge="1" parent="1" source="GIX23owhjXsJFl0O1FIT-18">
          <mxGeometry relative="1" as="geometry">
            <mxPoint x="600" y="711.3800000000001" as="targetPoint" />
          </mxGeometry>
        </mxCell>
        <mxCell id="GIX23owhjXsJFl0O1FIT-18" value="Trả về sự kiện chạy chức năng thứ 2" style="rounded=0;whiteSpace=wrap;html=1;aspect=fixed;" vertex="1" parent="1">
          <mxGeometry x="400" y="673.88" width="150" height="75" as="geometry" />
        </mxCell>
        <mxCell id="GIX23owhjXsJFl0O1FIT-21" value="" style="endArrow=none;dashed=1;html=1;dashPattern=1 3;strokeWidth=2;rounded=0;" edge="1" parent="1">
          <mxGeometry width="50" height="50" relative="1" as="geometry">
            <mxPoint x="260" y="780" as="sourcePoint" />
            <mxPoint x="260" y="820" as="targetPoint" />
            <Array as="points">
              <mxPoint x="260" y="820" />
            </Array>
          </mxGeometry>
        </mxCell>
        <mxCell id="GIX23owhjXsJFl0O1FIT-24" value="" style="edgeStyle=orthogonalEdgeStyle;rounded=0;orthogonalLoop=1;jettySize=auto;html=1;" edge="1" parent="1" source="GIX23owhjXsJFl0O1FIT-22" target="GIX23owhjXsJFl0O1FIT-23">
          <mxGeometry relative="1" as="geometry" />
        </mxCell>
        <mxCell id="GIX23owhjXsJFl0O1FIT-26" style="edgeStyle=orthogonalEdgeStyle;rounded=0;orthogonalLoop=1;jettySize=auto;html=1;entryX=0.5;entryY=0;entryDx=0;entryDy=0;" edge="1" parent="1" source="GIX23owhjXsJFl0O1FIT-22" target="GIX23owhjXsJFl0O1FIT-25">
          <mxGeometry relative="1" as="geometry" />
        </mxCell>
        <mxCell id="GIX23owhjXsJFl0O1FIT-22" value="== n" style="rhombus;whiteSpace=wrap;html=1;aspect=fixed;" vertex="1" parent="1">
          <mxGeometry x="185" y="840" width="150" height="82.76" as="geometry" />
        </mxCell>
        <mxCell id="GIX23owhjXsJFl0O1FIT-29" style="edgeStyle=orthogonalEdgeStyle;rounded=0;orthogonalLoop=1;jettySize=auto;html=1;endArrow=none;endFill=0;" edge="1" parent="1" source="GIX23owhjXsJFl0O1FIT-23">
          <mxGeometry relative="1" as="geometry">
            <mxPoint x="600" y="881.3800000000001" as="targetPoint" />
          </mxGeometry>
        </mxCell>
        <mxCell id="GIX23owhjXsJFl0O1FIT-23" value="Trả về sự kiện chạy chức năng thứ n" style="rounded=0;whiteSpace=wrap;html=1;aspect=fixed;" vertex="1" parent="1">
          <mxGeometry x="400" y="843.88" width="150" height="75" as="geometry" />
        </mxCell>
        <mxCell id="GIX23owhjXsJFl0O1FIT-30" style="edgeStyle=orthogonalEdgeStyle;rounded=0;orthogonalLoop=1;jettySize=auto;html=1;entryX=0;entryY=0.5;entryDx=0;entryDy=0;" edge="1" parent="1" source="GIX23owhjXsJFl0O1FIT-25" target="GIX23owhjXsJFl0O1FIT-31">
          <mxGeometry relative="1" as="geometry">
            <Array as="points">
              <mxPoint x="150" y="990" />
              <mxPoint x="150" y="119" />
              <mxPoint x="185" y="119" />
            </Array>
          </mxGeometry>
        </mxCell>
        <mxCell id="GIX23owhjXsJFl0O1FIT-25" value="Kết thúc switch case" style="rounded=0;whiteSpace=wrap;html=1;" vertex="1" parent="1">
          <mxGeometry x="200" y="960" width="120" height="60" as="geometry" />
        </mxCell>
        <mxCell id="GIX23owhjXsJFl0O1FIT-32" style="edgeStyle=orthogonalEdgeStyle;rounded=0;orthogonalLoop=1;jettySize=auto;html=1;entryX=0.5;entryY=0;entryDx=0;entryDy=0;" edge="1" parent="1" source="GIX23owhjXsJFl0O1FIT-31" target="eFG2Fhv3p7UlwRJ7y4Xw-2">
          <mxGeometry relative="1" as="geometry" />
        </mxCell>
        <mxCell id="GIX23owhjXsJFl0O1FIT-31" value="Kiểm tra luồng hoạt động có phải đang là Menu hay không" style="rhombus;whiteSpace=wrap;html=1;aspect=fixed;" vertex="1" parent="1">
          <mxGeometry x="185" y="77.24" width="150" height="82.76" as="geometry" />
        </mxCell>
        <mxCell id="GIX23owhjXsJFl0O1FIT-33" value="Đúng" style="text;html=1;align=center;verticalAlign=middle;resizable=0;points=[];autosize=1;strokeColor=none;fillColor=none;" vertex="1" parent="1">
          <mxGeometry x="260" y="160" width="50" height="30" as="geometry" />
        </mxCell>
      </root>
    </mxGraphModel>
  </diagram>
  <diagram id="2_A5BDF7lYrFg0euvoke" name="Flow Control">
    <mxGraphModel dx="773" dy="615" grid="1" gridSize="10" guides="1" tooltips="1" connect="1" arrows="1" fold="1" page="1" pageScale="1" pageWidth="850" pageHeight="1100" math="0" shadow="0">
      <root>
        <mxCell id="0" />
        <mxCell id="1" parent="0" />
        <mxCell id="Kj1YMTgN6BLGObfxz-xy-3" style="edgeStyle=orthogonalEdgeStyle;rounded=0;orthogonalLoop=1;jettySize=auto;html=1;entryX=0.5;entryY=0;entryDx=0;entryDy=0;" parent="1" source="Kj1YMTgN6BLGObfxz-xy-1" target="Kj1YMTgN6BLGObfxz-xy-2" edge="1">
          <mxGeometry relative="1" as="geometry" />
        </mxCell>
        <mxCell id="Kj1YMTgN6BLGObfxz-xy-1" value="Start" style="ellipse;whiteSpace=wrap;html=1;" parent="1" vertex="1">
          <mxGeometry x="350" y="120" width="120" height="80" as="geometry" />
        </mxCell>
        <mxCell id="IncogHasRwqiYtgEqEFI-3" style="edgeStyle=orthogonalEdgeStyle;rounded=0;orthogonalLoop=1;jettySize=auto;html=1;entryX=0.5;entryY=0;entryDx=0;entryDy=0;" parent="1" source="Kj1YMTgN6BLGObfxz-xy-2" target="Kj1YMTgN6BLGObfxz-xy-4" edge="1">
          <mxGeometry relative="1" as="geometry" />
        </mxCell>
        <mxCell id="Kj1YMTgN6BLGObfxz-xy-2" value="Đợi sự kiện khởi chạy tính năng" style="rounded=0;whiteSpace=wrap;html=1;aspect=fixed;" parent="1" vertex="1">
          <mxGeometry x="335" y="240" width="150" height="75" as="geometry" />
        </mxCell>
        <mxCell id="IncogHasRwqiYtgEqEFI-2" value="" style="edgeStyle=orthogonalEdgeStyle;rounded=0;orthogonalLoop=1;jettySize=auto;html=1;" parent="1" source="Kj1YMTgN6BLGObfxz-xy-4" target="IncogHasRwqiYtgEqEFI-1" edge="1">
          <mxGeometry relative="1" as="geometry" />
        </mxCell>
        <mxCell id="IncogHasRwqiYtgEqEFI-7" value="" style="edgeStyle=orthogonalEdgeStyle;rounded=0;orthogonalLoop=1;jettySize=auto;html=1;" parent="1" source="Kj1YMTgN6BLGObfxz-xy-4" target="IncogHasRwqiYtgEqEFI-6" edge="1">
          <mxGeometry relative="1" as="geometry" />
        </mxCell>
        <mxCell id="Kj1YMTgN6BLGObfxz-xy-4" value="Sự kiện nhận được là chức năng mặc định" style="rhombus;whiteSpace=wrap;html=1;" parent="1" vertex="1">
          <mxGeometry x="335" y="360" width="150" height="80" as="geometry" />
        </mxCell>
        <mxCell id="IncogHasRwqiYtgEqEFI-17" style="edgeStyle=orthogonalEdgeStyle;rounded=0;orthogonalLoop=1;jettySize=auto;html=1;entryX=0.997;entryY=0.589;entryDx=0;entryDy=0;entryPerimeter=0;" parent="1" edge="1">
          <mxGeometry relative="1" as="geometry">
            <Array as="points">
              <mxPoint x="740" y="400" />
              <mxPoint x="740" y="764" />
            </Array>
            <mxPoint x="690.45" y="400" as="sourcePoint" />
            <mxPoint x="484.99999999999994" y="764.175" as="targetPoint" />
          </mxGeometry>
        </mxCell>
        <mxCell id="IncogHasRwqiYtgEqEFI-1" value="Chạy luồng chức năng mặc định" style="rounded=0;whiteSpace=wrap;html=1;aspect=fixed;" parent="1" vertex="1">
          <mxGeometry x="540" y="362.5" width="150" height="75" as="geometry" />
        </mxCell>
        <mxCell id="IncogHasRwqiYtgEqEFI-9" value="" style="edgeStyle=orthogonalEdgeStyle;rounded=0;orthogonalLoop=1;jettySize=auto;html=1;" parent="1" source="IncogHasRwqiYtgEqEFI-6" target="IncogHasRwqiYtgEqEFI-8" edge="1">
          <mxGeometry relative="1" as="geometry" />
        </mxCell>
        <mxCell id="IncogHasRwqiYtgEqEFI-6" value="Sự kiện nhận được là chức năng thứ 1" style="rhombus;whiteSpace=wrap;html=1;" parent="1" vertex="1">
          <mxGeometry x="335" y="480" width="150" height="80" as="geometry" />
        </mxCell>
        <mxCell id="IncogHasRwqiYtgEqEFI-18" style="edgeStyle=orthogonalEdgeStyle;rounded=0;orthogonalLoop=1;jettySize=auto;html=1;endArrow=none;endFill=0;" parent="1" source="IncogHasRwqiYtgEqEFI-8" edge="1">
          <mxGeometry relative="1" as="geometry">
            <mxPoint x="740" y="520" as="targetPoint" />
          </mxGeometry>
        </mxCell>
        <mxCell id="IncogHasRwqiYtgEqEFI-8" value="Chạy luồng chức năng thứ 1" style="rounded=0;whiteSpace=wrap;html=1;aspect=fixed;" parent="1" vertex="1">
          <mxGeometry x="540" y="482.5" width="150" height="75" as="geometry" />
        </mxCell>
        <mxCell id="IncogHasRwqiYtgEqEFI-10" value="" style="endArrow=none;dashed=1;html=1;dashPattern=1 3;strokeWidth=2;rounded=0;" parent="1" edge="1">
          <mxGeometry width="50" height="50" relative="1" as="geometry">
            <mxPoint x="410" y="610" as="sourcePoint" />
            <mxPoint x="410" y="580" as="targetPoint" />
          </mxGeometry>
        </mxCell>
        <mxCell id="IncogHasRwqiYtgEqEFI-13" value="" style="edgeStyle=orthogonalEdgeStyle;rounded=0;orthogonalLoop=1;jettySize=auto;html=1;" parent="1" source="IncogHasRwqiYtgEqEFI-11" target="IncogHasRwqiYtgEqEFI-12" edge="1">
          <mxGeometry relative="1" as="geometry" />
        </mxCell>
        <mxCell id="IncogHasRwqiYtgEqEFI-16" value="" style="edgeStyle=orthogonalEdgeStyle;rounded=0;orthogonalLoop=1;jettySize=auto;html=1;" parent="1" source="IncogHasRwqiYtgEqEFI-11" target="IncogHasRwqiYtgEqEFI-14" edge="1">
          <mxGeometry relative="1" as="geometry" />
        </mxCell>
        <mxCell id="IncogHasRwqiYtgEqEFI-11" value="Sự kiện nhận được là chức năng thứ n" style="rhombus;whiteSpace=wrap;html=1;" parent="1" vertex="1">
          <mxGeometry x="335" y="620" width="150" height="80" as="geometry" />
        </mxCell>
        <mxCell id="IncogHasRwqiYtgEqEFI-19" style="edgeStyle=orthogonalEdgeStyle;rounded=0;orthogonalLoop=1;jettySize=auto;html=1;endArrow=none;endFill=0;" parent="1" source="IncogHasRwqiYtgEqEFI-12" edge="1">
          <mxGeometry relative="1" as="geometry">
            <mxPoint x="740" y="690" as="targetPoint" />
            <Array as="points">
              <mxPoint x="740" y="660" />
            </Array>
          </mxGeometry>
        </mxCell>
        <mxCell id="IncogHasRwqiYtgEqEFI-12" value="Chạy luồng chức năng thứ n" style="rounded=0;whiteSpace=wrap;html=1;aspect=fixed;" parent="1" vertex="1">
          <mxGeometry x="540" y="622.5" width="150" height="75" as="geometry" />
        </mxCell>
        <mxCell id="pQYU4awH7KvPXr37h0Uj-3" style="edgeStyle=orthogonalEdgeStyle;rounded=0;orthogonalLoop=1;jettySize=auto;html=1;entryX=0.5;entryY=0;entryDx=0;entryDy=0;" edge="1" parent="1" source="IncogHasRwqiYtgEqEFI-14" target="pQYU4awH7KvPXr37h0Uj-2">
          <mxGeometry relative="1" as="geometry" />
        </mxCell>
        <mxCell id="IncogHasRwqiYtgEqEFI-14" value="Kết thúc" style="rounded=0;whiteSpace=wrap;html=1;aspect=fixed;" parent="1" vertex="1">
          <mxGeometry x="335" y="720" width="150" height="75" as="geometry" />
        </mxCell>
        <mxCell id="pQYU4awH7KvPXr37h0Uj-2" value="End" style="ellipse;whiteSpace=wrap;html=1;" vertex="1" parent="1">
          <mxGeometry x="350" y="840" width="120" height="80" as="geometry" />
        </mxCell>
      </root>
    </mxGraphModel>
  </diagram>
  <diagram id="KA-X9PzaURoscsViKSHY" name="WiFi Handle">
    <mxGraphModel dx="928" dy="738" grid="1" gridSize="10" guides="1" tooltips="1" connect="1" arrows="1" fold="1" page="1" pageScale="1" pageWidth="850" pageHeight="1100" math="0" shadow="0">
      <root>
        <mxCell id="0" />
        <mxCell id="1" parent="0" />
        <mxCell id="S0XcoApe1Wik5jtTYh7v-3" style="edgeStyle=orthogonalEdgeStyle;rounded=0;orthogonalLoop=1;jettySize=auto;html=1;entryX=0.5;entryY=0;entryDx=0;entryDy=0;" parent="1" source="S0XcoApe1Wik5jtTYh7v-1" target="S0XcoApe1Wik5jtTYh7v-2" edge="1">
          <mxGeometry relative="1" as="geometry" />
        </mxCell>
        <mxCell id="S0XcoApe1Wik5jtTYh7v-1" value="Start" style="ellipse;whiteSpace=wrap;html=1;" parent="1" vertex="1">
          <mxGeometry x="390" y="200" width="120" height="80" as="geometry" />
        </mxCell>
        <mxCell id="S0XcoApe1Wik5jtTYh7v-6" style="edgeStyle=orthogonalEdgeStyle;rounded=0;orthogonalLoop=1;jettySize=auto;html=1;entryX=0.5;entryY=0;entryDx=0;entryDy=0;" parent="1" source="S0XcoApe1Wik5jtTYh7v-2" target="S0XcoApe1Wik5jtTYh7v-5" edge="1">
          <mxGeometry relative="1" as="geometry" />
        </mxCell>
        <mxCell id="S0XcoApe1Wik5jtTYh7v-2" value="Đợi yêu cầu sử dụng WiFi từ các Task GetData" style="rounded=0;whiteSpace=wrap;html=1;gradientColor=none;aspect=fixed;" parent="1" vertex="1">
          <mxGeometry x="375" y="320" width="150" height="75" as="geometry" />
        </mxCell>
        <mxCell id="S0XcoApe1Wik5jtTYh7v-9" value="" style="edgeStyle=orthogonalEdgeStyle;rounded=0;orthogonalLoop=1;jettySize=auto;html=1;" parent="1" source="S0XcoApe1Wik5jtTYh7v-5" target="S0XcoApe1Wik5jtTYh7v-7" edge="1">
          <mxGeometry relative="1" as="geometry" />
        </mxCell>
        <mxCell id="S0XcoApe1Wik5jtTYh7v-5" value="Đếm số Task cần sử dụng WiFi" style="rounded=0;whiteSpace=wrap;html=1;gradientColor=none;aspect=fixed;" parent="1" vertex="1">
          <mxGeometry x="375" y="440" width="150" height="75" as="geometry" />
        </mxCell>
        <mxCell id="S0XcoApe1Wik5jtTYh7v-13" value="" style="edgeStyle=orthogonalEdgeStyle;rounded=0;orthogonalLoop=1;jettySize=auto;html=1;" parent="1" source="S0XcoApe1Wik5jtTYh7v-7" target="S0XcoApe1Wik5jtTYh7v-10" edge="1">
          <mxGeometry relative="1" as="geometry" />
        </mxCell>
        <mxCell id="S0XcoApe1Wik5jtTYh7v-7" value="Bật và tiến hành kết nối WiFi" style="rounded=0;whiteSpace=wrap;html=1;gradientColor=none;aspect=fixed;" parent="1" vertex="1">
          <mxGeometry x="375" y="560" width="150" height="75" as="geometry" />
        </mxCell>
        <mxCell id="S0XcoApe1Wik5jtTYh7v-8" value="Tiến hành gọi hàm connectWiFi" style="rounded=0;whiteSpace=wrap;html=1;gradientColor=none;aspect=fixed;" parent="1" vertex="1">
          <mxGeometry x="587.5" y="672.5" width="150" height="75" as="geometry" />
        </mxCell>
        <mxCell id="S0XcoApe1Wik5jtTYh7v-11" value="" style="edgeStyle=orthogonalEdgeStyle;rounded=0;orthogonalLoop=1;jettySize=auto;html=1;" parent="1" source="S0XcoApe1Wik5jtTYh7v-10" target="S0XcoApe1Wik5jtTYh7v-8" edge="1">
          <mxGeometry relative="1" as="geometry" />
        </mxCell>
        <mxCell id="S0XcoApe1Wik5jtTYh7v-20" value="" style="edgeStyle=orthogonalEdgeStyle;rounded=0;orthogonalLoop=1;jettySize=auto;html=1;" parent="1" source="S0XcoApe1Wik5jtTYh7v-10" target="S0XcoApe1Wik5jtTYh7v-19" edge="1">
          <mxGeometry relative="1" as="geometry" />
        </mxCell>
        <mxCell id="S0XcoApe1Wik5jtTYh7v-10" value="Kiểm tra thông tin WiFi kết nối trước đó có còn sử dụng được hay không" style="rhombus;whiteSpace=wrap;html=1;" parent="1" vertex="1">
          <mxGeometry x="372.5" y="670" width="155" height="80" as="geometry" />
        </mxCell>
        <mxCell id="S0XcoApe1Wik5jtTYh7v-12" value="Sai" style="text;html=1;align=center;verticalAlign=middle;resizable=0;points=[];autosize=1;strokeColor=none;fillColor=none;" parent="1" vertex="1">
          <mxGeometry x="527.5" y="680" width="40" height="30" as="geometry" />
        </mxCell>
        <mxCell id="S0XcoApe1Wik5jtTYh7v-18" value="Đúng" style="text;html=1;align=center;verticalAlign=middle;resizable=0;points=[];autosize=1;strokeColor=none;fillColor=none;" parent="1" vertex="1">
          <mxGeometry x="450" y="760" width="50" height="30" as="geometry" />
        </mxCell>
        <mxCell id="S0XcoApe1Wik5jtTYh7v-22" value="" style="edgeStyle=orthogonalEdgeStyle;rounded=0;orthogonalLoop=1;jettySize=auto;html=1;" parent="1" source="S0XcoApe1Wik5jtTYh7v-19" target="S0XcoApe1Wik5jtTYh7v-21" edge="1">
          <mxGeometry relative="1" as="geometry" />
        </mxCell>
        <mxCell id="S0XcoApe1Wik5jtTYh7v-19" value="Trả về sự kiện WiFi sẵn sàng để sử dụng cho các Task yêu cầu" style="rounded=0;whiteSpace=wrap;html=1;gradientColor=none;aspect=fixed;" parent="1" vertex="1">
          <mxGeometry x="375" y="800" width="150" height="75" as="geometry" />
        </mxCell>
        <mxCell id="S0XcoApe1Wik5jtTYh7v-24" style="edgeStyle=orthogonalEdgeStyle;rounded=0;orthogonalLoop=1;jettySize=auto;html=1;entryX=0.5;entryY=0;entryDx=0;entryDy=0;" parent="1" source="S0XcoApe1Wik5jtTYh7v-21" target="S0XcoApe1Wik5jtTYh7v-23" edge="1">
          <mxGeometry relative="1" as="geometry" />
        </mxCell>
        <mxCell id="S0XcoApe1Wik5jtTYh7v-21" value="Đợi sự kiện kết thúc sử dụng WiFi từ các Task trả về" style="rounded=0;whiteSpace=wrap;html=1;gradientColor=none;aspect=fixed;" parent="1" vertex="1">
          <mxGeometry x="375" y="920" width="150" height="75" as="geometry" />
        </mxCell>
        <mxCell id="S0XcoApe1Wik5jtTYh7v-26" value="" style="edgeStyle=orthogonalEdgeStyle;rounded=0;orthogonalLoop=1;jettySize=auto;html=1;" parent="1" source="S0XcoApe1Wik5jtTYh7v-23" target="S0XcoApe1Wik5jtTYh7v-25" edge="1">
          <mxGeometry relative="1" as="geometry" />
        </mxCell>
        <mxCell id="S0XcoApe1Wik5jtTYh7v-27" style="edgeStyle=orthogonalEdgeStyle;rounded=0;orthogonalLoop=1;jettySize=auto;html=1;entryX=0;entryY=0.5;entryDx=0;entryDy=0;" parent="1" source="S0XcoApe1Wik5jtTYh7v-23" target="S0XcoApe1Wik5jtTYh7v-2" edge="1">
          <mxGeometry relative="1" as="geometry">
            <Array as="points">
              <mxPoint x="330" y="1078" />
              <mxPoint x="330" y="358" />
            </Array>
          </mxGeometry>
        </mxCell>
        <mxCell id="S0XcoApe1Wik5jtTYh7v-23" value="Ngắt kết nối và tắt WiFi" style="rounded=0;whiteSpace=wrap;html=1;gradientColor=none;aspect=fixed;" parent="1" vertex="1">
          <mxGeometry x="375" y="1040" width="150" height="75" as="geometry" />
        </mxCell>
        <mxCell id="S0XcoApe1Wik5jtTYh7v-25" value="End" style="ellipse;whiteSpace=wrap;html=1;" parent="1" vertex="1">
          <mxGeometry x="390" y="1160" width="120" height="80" as="geometry" />
        </mxCell>
      </root>
    </mxGraphModel>
  </diagram>
  <diagram id="RdMqkYzwvsAEl-txduCX" name="connect WiFi">
    <mxGraphModel dx="928" dy="738" grid="1" gridSize="10" guides="1" tooltips="1" connect="1" arrows="1" fold="1" page="1" pageScale="1" pageWidth="827" pageHeight="1169" math="0" shadow="0">
      <root>
        <mxCell id="0" />
        <mxCell id="1" parent="0" />
        <mxCell id="wW7GjqXXBI4r_aMr0OwD-4" value="" style="edgeStyle=orthogonalEdgeStyle;rounded=0;orthogonalLoop=1;jettySize=auto;html=1;" parent="1" source="wW7GjqXXBI4r_aMr0OwD-1" target="wW7GjqXXBI4r_aMr0OwD-2" edge="1">
          <mxGeometry relative="1" as="geometry" />
        </mxCell>
        <mxCell id="wW7GjqXXBI4r_aMr0OwD-1" value="Start" style="ellipse;whiteSpace=wrap;html=1;" parent="1" vertex="1">
          <mxGeometry x="165" y="130" width="120" height="80" as="geometry" />
        </mxCell>
        <mxCell id="wW7GjqXXBI4r_aMr0OwD-6" value="" style="edgeStyle=orthogonalEdgeStyle;rounded=0;orthogonalLoop=1;jettySize=auto;html=1;" parent="1" source="wW7GjqXXBI4r_aMr0OwD-2" target="wW7GjqXXBI4r_aMr0OwD-5" edge="1">
          <mxGeometry relative="1" as="geometry" />
        </mxCell>
        <mxCell id="wW7GjqXXBI4r_aMr0OwD-2" value="Đọc File lưu thông tin WiFi được lưu trong bộ nhớ" style="rounded=0;whiteSpace=wrap;html=1;aspect=fixed;" parent="1" vertex="1">
          <mxGeometry x="150" y="240" width="150" height="75" as="geometry" />
        </mxCell>
        <mxCell id="wW7GjqXXBI4r_aMr0OwD-8" value="" style="edgeStyle=orthogonalEdgeStyle;rounded=0;orthogonalLoop=1;jettySize=auto;html=1;" parent="1" source="wW7GjqXXBI4r_aMr0OwD-5" target="wW7GjqXXBI4r_aMr0OwD-7" edge="1">
          <mxGeometry relative="1" as="geometry" />
        </mxCell>
        <mxCell id="wW7GjqXXBI4r_aMr0OwD-5" value="Tiến hành quét các mạng WiFi có sẵn ở xung quanh" style="rounded=0;whiteSpace=wrap;html=1;aspect=fixed;" parent="1" vertex="1">
          <mxGeometry x="150" y="350" width="150" height="75" as="geometry" />
        </mxCell>
        <mxCell id="wW7GjqXXBI4r_aMr0OwD-10" value="" style="edgeStyle=orthogonalEdgeStyle;rounded=0;orthogonalLoop=1;jettySize=auto;html=1;" parent="1" source="wW7GjqXXBI4r_aMr0OwD-7" target="wW7GjqXXBI4r_aMr0OwD-9" edge="1">
          <mxGeometry relative="1" as="geometry" />
        </mxCell>
        <mxCell id="wW7GjqXXBI4r_aMr0OwD-13" style="edgeStyle=orthogonalEdgeStyle;rounded=0;orthogonalLoop=1;jettySize=auto;html=1;entryX=0;entryY=0.5;entryDx=0;entryDy=0;" parent="1" source="wW7GjqXXBI4r_aMr0OwD-7" target="wW7GjqXXBI4r_aMr0OwD-12" edge="1">
          <mxGeometry relative="1" as="geometry" />
        </mxCell>
        <mxCell id="wW7GjqXXBI4r_aMr0OwD-7" value="Kiểm tra xem các mạng đã quét có trong thông tin đã lưu hay không" style="rhombus;whiteSpace=wrap;html=1;" parent="1" vertex="1">
          <mxGeometry x="150" y="460" width="150" height="80" as="geometry" />
        </mxCell>
        <mxCell id="wW7GjqXXBI4r_aMr0OwD-18" style="edgeStyle=orthogonalEdgeStyle;rounded=0;orthogonalLoop=1;jettySize=auto;html=1;entryX=0.5;entryY=0;entryDx=0;entryDy=0;" parent="1" source="wW7GjqXXBI4r_aMr0OwD-9" target="wW7GjqXXBI4r_aMr0OwD-17" edge="1">
          <mxGeometry relative="1" as="geometry" />
        </mxCell>
        <mxCell id="wW7GjqXXBI4r_aMr0OwD-9" value="Kết nối đến WiFi" style="rounded=0;whiteSpace=wrap;html=1;aspect=fixed;" parent="1" vertex="1">
          <mxGeometry x="150" y="580" width="150" height="75" as="geometry" />
        </mxCell>
        <mxCell id="wW7GjqXXBI4r_aMr0OwD-11" value="Đúng" style="text;html=1;align=center;verticalAlign=middle;resizable=0;points=[];autosize=1;strokeColor=none;fillColor=none;" parent="1" vertex="1">
          <mxGeometry x="225" y="540" width="50" height="30" as="geometry" />
        </mxCell>
        <mxCell id="wW7GjqXXBI4r_aMr0OwD-15" style="edgeStyle=orthogonalEdgeStyle;rounded=0;orthogonalLoop=1;jettySize=auto;html=1;entryX=0.036;entryY=0.5;entryDx=0;entryDy=0;entryPerimeter=0;" parent="1" source="wW7GjqXXBI4r_aMr0OwD-12" target="wW7GjqXXBI4r_aMr0OwD-14" edge="1">
          <mxGeometry relative="1" as="geometry" />
        </mxCell>
        <mxCell id="wW7GjqXXBI4r_aMr0OwD-12" value="Mở điểm truy cập và tạo webserver cho người dùng nhập thông tin WiFi vào" style="rounded=0;whiteSpace=wrap;html=1;aspect=fixed;" parent="1" vertex="1">
          <mxGeometry x="355" y="462.5" width="150" height="75" as="geometry" />
        </mxCell>
        <mxCell id="wW7GjqXXBI4r_aMr0OwD-16" style="edgeStyle=orthogonalEdgeStyle;rounded=0;orthogonalLoop=1;jettySize=auto;html=1;entryX=1;entryY=0.5;entryDx=0;entryDy=0;" parent="1" source="wW7GjqXXBI4r_aMr0OwD-14" target="wW7GjqXXBI4r_aMr0OwD-9" edge="1">
          <mxGeometry relative="1" as="geometry">
            <Array as="points">
              <mxPoint x="640" y="618" />
              <mxPoint x="433" y="618" />
            </Array>
          </mxGeometry>
        </mxCell>
        <mxCell id="wW7GjqXXBI4r_aMr0OwD-14" value="Nhập thông tin WiFi" style="shape=parallelogram;perimeter=parallelogramPerimeter;whiteSpace=wrap;html=1;fixedSize=1;aspect=fixed;" parent="1" vertex="1">
          <mxGeometry x="565" y="462.5" width="150" height="75" as="geometry" />
        </mxCell>
        <mxCell id="wW7GjqXXBI4r_aMr0OwD-20" value="" style="edgeStyle=orthogonalEdgeStyle;rounded=0;orthogonalLoop=1;jettySize=auto;html=1;" parent="1" source="wW7GjqXXBI4r_aMr0OwD-17" target="wW7GjqXXBI4r_aMr0OwD-19" edge="1">
          <mxGeometry relative="1" as="geometry" />
        </mxCell>
        <mxCell id="wW7GjqXXBI4r_aMr0OwD-17" value="Lưu thông tin WiFi vào File" style="rounded=0;whiteSpace=wrap;html=1;aspect=fixed;" parent="1" vertex="1">
          <mxGeometry x="150" y="690" width="150" height="75" as="geometry" />
        </mxCell>
        <mxCell id="wW7GjqXXBI4r_aMr0OwD-19" value="End" style="ellipse;whiteSpace=wrap;html=1;" parent="1" vertex="1">
          <mxGeometry x="165" y="800" width="120" height="80" as="geometry" />
        </mxCell>
      </root>
    </mxGraphModel>
  </diagram>
  <diagram id="1JgHYkrvd8IOLVgsBwtx" name="Working chart">
    <mxGraphModel dx="1326" dy="2223" grid="1" gridSize="10" guides="1" tooltips="1" connect="1" arrows="1" fold="1" page="1" pageScale="1" pageWidth="827" pageHeight="1169" math="0" shadow="0">
      <root>
        <mxCell id="0" />
        <mxCell id="1" parent="0" />
        <mxCell id="2BVI5P_QojTPvW1DQoyq-44" value="" style="rounded=0;whiteSpace=wrap;html=1;" vertex="1" parent="1">
          <mxGeometry x="150" y="-130" width="930" height="790" as="geometry" />
        </mxCell>
        <mxCell id="2BVI5P_QojTPvW1DQoyq-4" value="" style="edgeStyle=orthogonalEdgeStyle;rounded=0;orthogonalLoop=1;jettySize=auto;html=1;" edge="1" parent="1" source="2BVI5P_QojTPvW1DQoyq-2" target="2BVI5P_QojTPvW1DQoyq-3">
          <mxGeometry relative="1" as="geometry" />
        </mxCell>
        <mxCell id="2BVI5P_QojTPvW1DQoyq-2" value="Button Monitoring Task" style="whiteSpace=wrap;html=1;aspect=fixed;" vertex="1" parent="1">
          <mxGeometry x="250" y="270" width="80" height="80" as="geometry" />
        </mxCell>
        <mxCell id="2BVI5P_QojTPvW1DQoyq-28" style="edgeStyle=orthogonalEdgeStyle;rounded=0;orthogonalLoop=1;jettySize=auto;html=1;entryX=0;entryY=0.5;entryDx=0;entryDy=0;exitX=0.5;exitY=1;exitDx=0;exitDy=0;" edge="1" parent="1" source="2BVI5P_QojTPvW1DQoyq-3" target="2BVI5P_QojTPvW1DQoyq-22">
          <mxGeometry relative="1" as="geometry" />
        </mxCell>
        <mxCell id="2BVI5P_QojTPvW1DQoyq-30" style="edgeStyle=orthogonalEdgeStyle;rounded=0;orthogonalLoop=1;jettySize=auto;html=1;entryX=0;entryY=0.5;entryDx=0;entryDy=0;" edge="1" parent="1" source="2BVI5P_QojTPvW1DQoyq-3" target="2BVI5P_QojTPvW1DQoyq-5">
          <mxGeometry relative="1" as="geometry">
            <Array as="points">
              <mxPoint x="440" y="-40" />
            </Array>
          </mxGeometry>
        </mxCell>
        <mxCell id="2BVI5P_QojTPvW1DQoyq-3" value="Working Flow Control Task" style="whiteSpace=wrap;html=1;aspect=fixed;" vertex="1" parent="1">
          <mxGeometry x="400" y="270" width="80" height="80" as="geometry" />
        </mxCell>
        <mxCell id="2BVI5P_QojTPvW1DQoyq-11" style="edgeStyle=orthogonalEdgeStyle;rounded=0;orthogonalLoop=1;jettySize=auto;html=1;entryX=0.5;entryY=0;entryDx=0;entryDy=0;" edge="1" parent="1" source="2BVI5P_QojTPvW1DQoyq-5" target="2BVI5P_QojTPvW1DQoyq-10">
          <mxGeometry relative="1" as="geometry" />
        </mxCell>
        <mxCell id="2BVI5P_QojTPvW1DQoyq-5" value="Get Current Weather Task" style="whiteSpace=wrap;html=1;aspect=fixed;" vertex="1" parent="1">
          <mxGeometry x="520" y="-80" width="80" height="80" as="geometry" />
        </mxCell>
        <mxCell id="2BVI5P_QojTPvW1DQoyq-12" value="" style="edgeStyle=orthogonalEdgeStyle;rounded=0;orthogonalLoop=1;jettySize=auto;html=1;" edge="1" parent="1" source="2BVI5P_QojTPvW1DQoyq-7" target="2BVI5P_QojTPvW1DQoyq-10">
          <mxGeometry relative="1" as="geometry" />
        </mxCell>
        <mxCell id="2BVI5P_QojTPvW1DQoyq-7" value="Get AQI Task" style="whiteSpace=wrap;html=1;aspect=fixed;" vertex="1" parent="1">
          <mxGeometry x="520" y="30" width="80" height="80" as="geometry" />
        </mxCell>
        <mxCell id="2BVI5P_QojTPvW1DQoyq-13" style="edgeStyle=orthogonalEdgeStyle;rounded=0;orthogonalLoop=1;jettySize=auto;html=1;entryX=0.5;entryY=1;entryDx=0;entryDy=0;" edge="1" parent="1" source="2BVI5P_QojTPvW1DQoyq-9" target="2BVI5P_QojTPvW1DQoyq-10">
          <mxGeometry relative="1" as="geometry" />
        </mxCell>
        <mxCell id="2BVI5P_QojTPvW1DQoyq-9" value="Get UV Index Task" style="whiteSpace=wrap;html=1;aspect=fixed;" vertex="1" parent="1">
          <mxGeometry x="520" y="150" width="80" height="80" as="geometry" />
        </mxCell>
        <mxCell id="2BVI5P_QojTPvW1DQoyq-18" style="edgeStyle=orthogonalEdgeStyle;rounded=0;orthogonalLoop=1;jettySize=auto;html=1;entryX=0.5;entryY=0;entryDx=0;entryDy=0;" edge="1" parent="1" source="2BVI5P_QojTPvW1DQoyq-10" target="2BVI5P_QojTPvW1DQoyq-17">
          <mxGeometry relative="1" as="geometry" />
        </mxCell>
        <mxCell id="2BVI5P_QojTPvW1DQoyq-10" value="Display Current Weather Task" style="whiteSpace=wrap;html=1;aspect=fixed;" vertex="1" parent="1">
          <mxGeometry x="700" y="30" width="80" height="80" as="geometry" />
        </mxCell>
        <mxCell id="2BVI5P_QojTPvW1DQoyq-15" style="edgeStyle=orthogonalEdgeStyle;rounded=0;orthogonalLoop=1;jettySize=auto;html=1;entryX=0;entryY=0.5;entryDx=0;entryDy=0;" edge="1" parent="1" source="2BVI5P_QojTPvW1DQoyq-14" target="2BVI5P_QojTPvW1DQoyq-2">
          <mxGeometry relative="1" as="geometry" />
        </mxCell>
        <mxCell id="2BVI5P_QojTPvW1DQoyq-36" style="edgeStyle=orthogonalEdgeStyle;rounded=0;orthogonalLoop=1;jettySize=auto;html=1;entryX=0;entryY=0.5;entryDx=0;entryDy=0;exitX=0.5;exitY=1;exitDx=0;exitDy=0;" edge="1" parent="1" source="2BVI5P_QojTPvW1DQoyq-14" target="2BVI5P_QojTPvW1DQoyq-35">
          <mxGeometry relative="1" as="geometry">
            <Array as="points">
              <mxPoint x="70" y="530" />
            </Array>
          </mxGeometry>
        </mxCell>
        <mxCell id="2BVI5P_QojTPvW1DQoyq-14" value="User" style="whiteSpace=wrap;html=1;aspect=fixed;" vertex="1" parent="1">
          <mxGeometry x="30" y="270" width="80" height="80" as="geometry" />
        </mxCell>
        <mxCell id="2BVI5P_QojTPvW1DQoyq-16" value="Input" style="text;html=1;align=center;verticalAlign=middle;resizable=0;points=[];autosize=1;strokeColor=none;fillColor=none;" vertex="1" parent="1">
          <mxGeometry x="170" y="280" width="50" height="30" as="geometry" />
        </mxCell>
        <mxCell id="2BVI5P_QojTPvW1DQoyq-17" value="Display" style="whiteSpace=wrap;html=1;aspect=fixed;" vertex="1" parent="1">
          <mxGeometry x="940" y="250" width="80" height="80" as="geometry" />
        </mxCell>
        <mxCell id="2BVI5P_QojTPvW1DQoyq-19" value="Queue" style="text;html=1;align=center;verticalAlign=middle;resizable=0;points=[];autosize=1;strokeColor=none;fillColor=none;" vertex="1" parent="1">
          <mxGeometry x="620" y="40" width="60" height="30" as="geometry" />
        </mxCell>
        <mxCell id="2BVI5P_QojTPvW1DQoyq-20" value="Queue / Flag" style="text;html=1;align=center;verticalAlign=middle;resizable=0;points=[];autosize=1;strokeColor=none;fillColor=none;" vertex="1" parent="1">
          <mxGeometry x="615" y="-72" width="90" height="30" as="geometry" />
        </mxCell>
        <mxCell id="2BVI5P_QojTPvW1DQoyq-21" value="Queue" style="text;html=1;align=center;verticalAlign=middle;resizable=0;points=[];autosize=1;strokeColor=none;fillColor=none;" vertex="1" parent="1">
          <mxGeometry x="620" y="160" width="60" height="30" as="geometry" />
        </mxCell>
        <mxCell id="2BVI5P_QojTPvW1DQoyq-25" style="edgeStyle=orthogonalEdgeStyle;rounded=0;orthogonalLoop=1;jettySize=auto;html=1;entryX=0;entryY=0.5;entryDx=0;entryDy=0;" edge="1" parent="1" source="2BVI5P_QojTPvW1DQoyq-22" target="2BVI5P_QojTPvW1DQoyq-23">
          <mxGeometry relative="1" as="geometry" />
        </mxCell>
        <mxCell id="2BVI5P_QojTPvW1DQoyq-22" value="Get 3-hours Forecast Task" style="whiteSpace=wrap;html=1;aspect=fixed;" vertex="1" parent="1">
          <mxGeometry x="520" y="400" width="80" height="80" as="geometry" />
        </mxCell>
        <mxCell id="2BVI5P_QojTPvW1DQoyq-24" style="edgeStyle=orthogonalEdgeStyle;rounded=0;orthogonalLoop=1;jettySize=auto;html=1;entryX=0.5;entryY=1;entryDx=0;entryDy=0;" edge="1" parent="1" source="2BVI5P_QojTPvW1DQoyq-23" target="2BVI5P_QojTPvW1DQoyq-17">
          <mxGeometry relative="1" as="geometry" />
        </mxCell>
        <mxCell id="2BVI5P_QojTPvW1DQoyq-23" value="Display 3-hours Forecast Task" style="whiteSpace=wrap;html=1;aspect=fixed;" vertex="1" parent="1">
          <mxGeometry x="700" y="400" width="80" height="80" as="geometry" />
        </mxCell>
        <mxCell id="2BVI5P_QojTPvW1DQoyq-29" value="Suspend / Resume" style="text;html=1;align=center;verticalAlign=middle;resizable=0;points=[];autosize=1;strokeColor=none;fillColor=none;" vertex="1" parent="1">
          <mxGeometry x="375" y="440" width="130" height="30" as="geometry" />
        </mxCell>
        <mxCell id="2BVI5P_QojTPvW1DQoyq-31" value="Suspend / Resume" style="text;html=1;align=center;verticalAlign=middle;resizable=0;points=[];autosize=1;strokeColor=none;fillColor=none;rotation=270;" vertex="1" parent="1">
          <mxGeometry x="360" y="120" width="130" height="30" as="geometry" />
        </mxCell>
        <mxCell id="2BVI5P_QojTPvW1DQoyq-32" value="" style="endArrow=classic;html=1;rounded=0;entryX=0;entryY=0.5;entryDx=0;entryDy=0;" edge="1" parent="1" target="2BVI5P_QojTPvW1DQoyq-7">
          <mxGeometry width="50" height="50" relative="1" as="geometry">
            <mxPoint x="440" y="70" as="sourcePoint" />
            <mxPoint x="490" y="60" as="targetPoint" />
          </mxGeometry>
        </mxCell>
        <mxCell id="2BVI5P_QojTPvW1DQoyq-33" value="" style="endArrow=classic;startArrow=none;html=1;rounded=0;entryX=0;entryY=0.5;entryDx=0;entryDy=0;startFill=0;" edge="1" parent="1" target="2BVI5P_QojTPvW1DQoyq-9">
          <mxGeometry width="50" height="50" relative="1" as="geometry">
            <mxPoint x="440" y="190" as="sourcePoint" />
            <mxPoint x="490" y="90" as="targetPoint" />
          </mxGeometry>
        </mxCell>
        <mxCell id="2BVI5P_QojTPvW1DQoyq-34" value="Queue / Flag" style="text;html=1;align=center;verticalAlign=middle;resizable=0;points=[];autosize=1;strokeColor=none;fillColor=none;" vertex="1" parent="1">
          <mxGeometry x="605" y="410" width="90" height="30" as="geometry" />
        </mxCell>
        <mxCell id="2BVI5P_QojTPvW1DQoyq-39" style="edgeStyle=orthogonalEdgeStyle;rounded=0;orthogonalLoop=1;jettySize=auto;html=1;exitX=1;exitY=0.5;exitDx=0;exitDy=0;" edge="1" parent="1" source="2BVI5P_QojTPvW1DQoyq-35">
          <mxGeometry relative="1" as="geometry">
            <mxPoint x="440" y="-40" as="targetPoint" />
            <mxPoint x="270" y="598" as="sourcePoint" />
            <Array as="points">
              <mxPoint x="360" y="530" />
              <mxPoint x="360" y="-40" />
            </Array>
          </mxGeometry>
        </mxCell>
        <mxCell id="2BVI5P_QojTPvW1DQoyq-35" value="WiFi Handle Task" style="whiteSpace=wrap;html=1;aspect=fixed;" vertex="1" parent="1">
          <mxGeometry x="250" y="490" width="80" height="80" as="geometry" />
        </mxCell>
        <mxCell id="2BVI5P_QojTPvW1DQoyq-38" value="Input" style="text;html=1;align=center;verticalAlign=middle;resizable=0;points=[];autosize=1;strokeColor=none;fillColor=none;" vertex="1" parent="1">
          <mxGeometry x="160" y="500" width="50" height="30" as="geometry" />
        </mxCell>
        <mxCell id="2BVI5P_QojTPvW1DQoyq-40" value="Flag" style="text;html=1;align=center;verticalAlign=middle;resizable=0;points=[];autosize=1;strokeColor=none;fillColor=none;rotation=270;" vertex="1" parent="1">
          <mxGeometry x="320" y="130" width="50" height="30" as="geometry" />
        </mxCell>
        <mxCell id="2BVI5P_QojTPvW1DQoyq-41" value="" style="endArrow=classic;html=1;rounded=0;entryX=0;entryY=0.5;entryDx=0;entryDy=0;" edge="1" parent="1">
          <mxGeometry width="50" height="50" relative="1" as="geometry">
            <mxPoint x="360" y="69.43" as="sourcePoint" />
            <mxPoint x="440" y="69.43" as="targetPoint" />
          </mxGeometry>
        </mxCell>
        <mxCell id="2BVI5P_QojTPvW1DQoyq-42" value="" style="endArrow=classic;html=1;rounded=0;entryX=0;entryY=0.5;entryDx=0;entryDy=0;" edge="1" parent="1">
          <mxGeometry width="50" height="50" relative="1" as="geometry">
            <mxPoint x="360" y="189.43" as="sourcePoint" />
            <mxPoint x="440" y="189.43" as="targetPoint" />
          </mxGeometry>
        </mxCell>
        <mxCell id="2BVI5P_QojTPvW1DQoyq-43" value="" style="endArrow=classic;html=1;rounded=0;entryX=0;entryY=0.5;entryDx=0;entryDy=0;" edge="1" parent="1">
          <mxGeometry width="50" height="50" relative="1" as="geometry">
            <mxPoint x="360" y="440" as="sourcePoint" />
            <mxPoint x="440" y="440" as="targetPoint" />
          </mxGeometry>
        </mxCell>
        <mxCell id="2BVI5P_QojTPvW1DQoyq-45" value="System" style="text;html=1;align=center;verticalAlign=middle;resizable=0;points=[];autosize=1;strokeColor=none;fillColor=none;" vertex="1" parent="1">
          <mxGeometry x="1010" y="620" width="60" height="30" as="geometry" />
        </mxCell>
      </root>
    </mxGraphModel>
  </diagram>
</mxfile>
